P3
# CREATOR: GIMP PNM Filter Version 1.1
64 64
255
221
212
208
221
212
208
221
212
208
222
213
211
221
210
209
217
204
201
200
178
179
117
92
89
173
150
138
175
152
137
175
152
137
175
152
137
175
152
137
174
151
136
174
151
136
174
151
136
174
151
136
174
151
136
174
151
136
174
151
136
167
144
129
170
148
133
172
150
135
174
151
136
174
151
136
174
151
136
174
151
136
174
151
136
174
151
136
174
151
136
174
151
136
174
151
136
174
151
136
174
151
136
174
151
136
174
151
136
174
151
136
174
151
136
174
151
136
174
151
136
172
150
135
114
92
77
172
150
135
172
150
135
172
150
135
167
144
129
165
143
127
172
150
135
174
151
136
174
151
136
174
151
136
171
151
134
168
146
138
190
175
167
222
207
211
206
179
191
211
178
184
173
148
137
169
146
130
63
95
77
45
86
74
39
86
73
41
84
71
53
97
78
221
212
210
221
212
210
221
212
210
222
213
211
221
212
210
223
207
208
194
168
172
183
155
156
143
118
109
173
150
135
172
150
135
172
150
135
172
150
135
171
149
134
171
149
134
171
149
134
171
149
134
171
149
134
171
149
134
171
149
134
166
143
128
174
151
136
172
150
135
174
151
136
172
150
135
172
150
135
172
150
135
172
150
135
172
150
135
172
150
135
172
150
135
172
150
135
172
150
135
172
150
135
171
149
134
171
149
134
171
149
134
171
149
134
172
150
135
172
150
135
172
150
135
172
150
135
171
148
133
170
148
133
171
149
134
171
149
134
117
94
79
172
150
135
174
151
136
172
150
136
172
150
135
173
150
135
172
151
139
172
155
142
221
200
204
204
178
190
172
145
141
171
146
141
120
109
103
140
153
143
98
122
114
40
83
69
48
88
75
55
94
80
221
212
210
221
212
210
221
212
210
222
213
211
222
212
211
221
213
210
194
160
168
151
122
119
173
150
137
172
150
135
171
149
134
171
149
134
171
149
134
171
149
134
171
149
134
171
149
134
171
149
134
171
149
134
171
149
134
171
149
134
120
98
82
171
149
134
170
148
133
171
149
134
171
149
134
171
149
134
171
149
134
171
149
134
171
149
134
171
149
134
171
149
134
171
149
134
171
149
134
171
149
134
171
149
134
171
149
134
171
149
134
171
149
134
171
149
134
171
149
134
171
149
134
171
149
134
156
134
118
171
149
134
171
149
134
170
148
133
171
149
134
164
141
125
171
149
135
166
149
139
172
154
140
176
158
143
169
150
136
168
148
130
90
64
53
200
175
171
173
147
140
141
119
114
207
209
206
210
211
211
205
205
205
61
83
80
43
78
71
33
68
66
221
212
210
221
212
210
221
212
210
223
212
211
222
212
211
219
213
210
198
161
168
165
140
129
170
148
130
171
149
131
170
148
132
170
148
132
170
148
132
170
148
132
170
148
132
170
148
132
170
148
132
170
148
132
170
148
132
170
148
132
107
85
70
170
148
132
170
148
132
171
149
134
166
144
126
171
149
134
171
149
134
171
149
134
171
149
134
171
149
134
170
148
133
170
148
132
170
148
132
170
148
132
170
148
132
170
148
132
170
148
132
170
148
132
171
149
134
171
149
134
171
149
134
171
149
134
115
93
78
169
146
131
170
148
133
170
148
132
169
146
131
118
94
79
170
148
136
213
207
203
212
210
207
212
210
207
214
208
205
106
95
89
163
147
140
162
141
134
170
151
139
214
212
207
208
209
212
212
210
213
211
207
211
61
82
80
35
70
65
31
65
63
217
203
203
215
205
202
222
212
209
222
212
209
222
212
211
214
209
203
149
117
118
171
146
135
171
147
130
172
147
130
171
146
129
171
146
129
171
146
129
172
147
132
172
147
132
172
147
132
172
147
132
171
146
131
171
146
131
169
144
130
110
85
71
172
147
132
172
147
132
171
146
129
212
187
170
172
147
130
173
148
134
172
147
132
172
147
132
172
147
132
171
146
131
171
146
131
171
146
131
171
146
131
172
147
132
172
147
132
172
147
132
171
146
131
171
146
131
171
146
131
171
146
131
172
147
132
105
80
65
171
146
131
172
147
133
173
148
134
173
148
134
168
142
127
168
145
132
214
208
207
210
208
212
211
210
212
211
210
212
211
210
210
199
194
191
155
141
131
113
102
93
210
210
207
209
210
213
212
212
212
212
210
211
47
66
62
38
73
66
48
86
75
211
177
189
208
179
196
136
114
124
226
210
213
220
209
210
217
212
207
135
108
99
171
145
131
172
147
128
172
147
128
171
146
129
171
146
129
171
146
129
172
147
132
172
147
132
172
147
132
172
147
132
171
146
131
171
146
131
168
143
129
110
85
71
168
143
129
171
146
131
169
145
128
210
186
167
174
149
133
170
145
130
172
147
132
172
147
132
172
147
132
171
146
131
171
146
131
171
146
131
171
146
131
172
147
132
172
147
132
172
147
132
171
146
131
171
146
131
171
146
131
170
145
130
168
143
129
125
100
85
166
141
127
169
144
130
172
147
132
169
144
130
168
143
128
93
71
58
138
126
122
212
208
210
209
211
211
212
212
212
212
212
212
208
210
211
213
213
213
157
159
159
205
206
206
211
211
211
213
213
213
210
209
209
40
57
51
46
82
70
42
86
67
207
172
179
214
178
195
212
183
197
210
190
195
219
208
211
216
209
203
171
145
129
171
146
127
172
147
128
169
145
126
169
145
128
169
145
128
169
145
128
169
144
130
169
144
130
169
144
130
169
144
130
171
146
131
171
146
131
168
143
129
128
103
89
168
143
129
171
146
131
171
146
129
213
188
169
180
155
138
181
156
142
171
146
131
171
146
131
171
146
131
170
145
130
169
144
130
169
144
130
169
144
130
169
144
130
169
144
130
169
144
130
169
144
130
169
144
130
169
144
130
169
144
130
169
144
130
126
101
87
166
141
127
170
145
130
172
147
132
171
146
131
169
144
130
158
135
120
153
135
126
211
207
201
209
212
209
212
212
212
212
212
212
211
211
211
212
212
212
209
209
209
153
153
153
212
212
212
213
213
213
211
211
211
134
140
138
41
78
65
37
82
61
180
146
147
213
179
190
209
176
196
126
103
111
219
206
212
104
94
87
170
145
125
171
146
125
172
147
126
171
146
127
169
145
128
169
145
128
169
145
128
169
144
130
169
144
130
168
143
129
168
143
128
170
145
130
171
146
131
168
143
129
160
135
121
167
142
128
170
145
130
168
144
127
172
148
129
171
146
129
174
149
134
171
146
131
171
146
131
171
146
131
170
145
130
168
143
129
168
143
129
168
143
129
169
144
130
169
144
130
169
144
130
169
144
130
167
142
128
169
144
130
168
144
129
166
143
128
113
91
76
167
142
128
168
143
129
171
146
131
171
146
131
170
145
130
164
142
127
164
138
128
126
115
108
210
210
208
211
211
211
212
212
212
212
212
212
212
212
212
211
211
211
204
204
204
213
213
213
212
212
212
212
212
212
202
205
204
42
74
62
50
96
71
171
141
135
201
168
174
213
176
197
204
178
188
214
201
207
158
145
137
159
144
127
165
145
131
170
146
128
171
146
127
169
145
128
169
145
128
169
145
128
169
144
130
169
144
130
105
80
65
166
141
127
168
143
129
170
145
130
168
143
129
173
148
133
167
142
128
168
143
129
169
144
130
169
145
128
171
146
129
169
145
128
171
146
131
171
146
131
171
146
131
169
144
130
168
143
129
168
143
129
168
143
129
169
144
130
169
144
130
169
144
130
142
117
102
168
143
129
169
144
130
148
126
111
164
143
128
61
40
24
167
144
129
170
145
130
171
146
131
171
146
131
170
145
130
168
143
129
123
95
82
162
147
137
211
207
206
211
210
211
212
212
212
212
212
212
212
212
212
212
212
212
170
170
171
165
165
165
211
211
211
212
212
212
210
209
212
66
82
74
52
95
68
172
141
138
177
144
141
214
177
191
212
175
191
102
89
96
207
200
202
209
206
204
189
174
165
167
146
127
171
146
127
169
145
128
169
145
128
169
145
128
169
144
130
170
145
130
168
143
128
168
143
129
169
144
130
170
145
130
167
144
129
151
129
114
157
134
119
167
144
129
169
144
130
166
142
125
171
146
129
164
140
123
168
143
129
168
143
129
168
143
129
168
143
129
168
143
129
168
143
129
168
143
129
169
144
130
169
144
130
169
144
130
120
95
81
166
141
127
168
143
129
129
106
91
164
144
128
218
197
181
165
143
128
168
143
129
168
143
129
168
143
129
168
143
129
169
144
130
107
82
67
164
144
133
192
183
180
212
210
209
212
212
212
212
212
213
211
210
215
208
209
207
136
138
145
141
146
155
209
208
208
211
210
209
211
211
211
136
146
142
45
77
60
138
124
119
176
147
143
197
165
169
168
148
154
214
212
213
210
209
212
207
208
210
121
109
99
170
146
129
170
145
128
169
145
128
169
145
128
169
145
128
169
144
130
162
137
123
165
140
125
169
144
130
169
144
130
170
145
130
167
144
129
123
103
87
134
113
98
165
143
128
168
143
129
171
147
130
165
140
123
136
111
95
168
143
129
168
143
129
168
143
129
168
143
129
168
143
129
168
143
129
168
143
129
169
144
130
169
144
130
168
143
129
107
82
68
152
124
111
153
128
114
146
124
109
126
106
90
219
198
182
99
76
61
166
142
127
168
143
129
168
143
129
168
143
129
169
144
130
161
136
122
164
142
130
156
143
136
212
208
208
211
211
211
212
212
211
208
214
210
176
184
193
126
141
152
95
117
132
180
192
203
207
208
208
210
209
209
171
181
180
35
59
58
208
210
207
183
171
170
165
141
140
201
194
192
210
209
210
210
209
211
208
209
212
94
82
72
170
146
131
167
142
128
168
143
129
168
143
129
168
143
129
169
144
130
135
110
96
168
143
129
169
144
130
169
144
130
170
145
130
172
147
133
216
193
178
135
112
97
146
123
108
130
108
92
158
133
119
166
141
127
111
86
72
167
142
128
168
143
129
168
143
129
168
143
129
168
143
129
168
143
129
168
143
129
169
144
130
168
143
129
167
142
128
78
51
38
165
137
126
166
143
130
147
127
113
172
152
138
221
200
187
222
200
187
154
131
118
167
144
131
167
144
131
167
144
131
169
144
132
169
144
132
165
146
137
109
98
95
213
208
208
211
211
211
212
212
212
189
194
212
144
165
189
110
125
142
151
169
186
146
164
181
191
202
212
215
209
208
188
191
195
36
57
57
208
210
210
208
210
209
132
123
113
209
207
205
208
208
208
210
209
211
208
207
207
158
143
133
168
144
131
168
143
131
168
143
129
168
143
129
168
143
129
169
144
130
110
85
71
167
142
128
168
143
129
169
144
130
168
145
130
124
102
87
222
200
185
139
116
101
161
139
124
159
137
122
108
83
69
149
124
109
121
96
82
169
144
130
169
144
130
169
144
130
168
143
129
168
143
129
168
143
129
168
143
129
169
144
130
169
144
130
167
142
130
114
91
79
167
137
126
151
128
115
119
99
85
163
143
129
222
201
188
222
201
188
179
157
144
167
144
131
167
144
131
167
144
131
168
143
131
167
142
130
154
133
124
93
79
73
212
209
205
212
210
209
206
208
209
158
168
187
121
137
158
153
165
181
168
180
195
138
153
168
144
169
191
171
180
192
180
185
192
40
59
54
210
210
210
211
208
210
123
119
120
208
208
208
208
210
210
209
209
212
211
208
205
166
149
137
167
142
129
168
143
131
168
143
129
168
143
129
168
143
129
169
144
130
110
85
70
166
141
127
167
142
128
168
143
129
173
152
136
216
196
180
226
206
190
156
133
118
78
55
40
162
139
124
131
106
92
160
135
121
165
140
126
168
143
129
169
144
130
169
144
130
168
143
129
168
143
129
168
143
129
168
143
129
169
144
130
170
142
131
159
137
124
120
99
87
167
137
126
110
87
74
153
132
119
223
203
189
222
201
188
222
201
188
223
201
188
99
76
63
165
142
130
168
145
132
169
144
132
168
143
131
107
81
72
141
122
112
211
208
199
206
210
211
162
177
191
151
166
185
152
164
178
195
198
205
110
114
119
210
214
224
176
187
196
156
167
182
110
123
127
62
83
66
180
180
180
214
212
213
213
210
211
210
209
212
209
210
212
209
209
212
208
202
201
165
146
134
168
143
130
168
143
131
168
143
130
168
143
130
168
143
130
168
143
130
136
111
98
166
140
128
167
142
129
165
141
129
112
90
76
222
200
186
223
201
187
109
87
73
144
121
107
163
141
127
165
141
128
169
145
132
137
113
100
164
139
126
167
142
129
168
143
130
168
143
130
167
142
129
167
142
129
167
142
129
167
144
130
168
143
131
150
127
115
91
70
58
165
138
127
113
90
77
215
194
181
223
201
188
223
201
188
223
201
188
224
202
189
226
203
190
134
111
98
168
145
132
168
144
131
166
142
130
135
111
100
166
144
130
198
193
182
192
204
215
141
170
196
96
111
130
190
201
209
208
208
212
206
208
212
205
204
209
206
206
208
211
211
216
204
207
213
57
73
51
143
143
143
211
211
211
204
204
204
210
209
212
211
210
213
210
209
212
215
209
208
166
147
134
169
144
131
169
144
132
168
143
131
168
143
131
168
143
131
166
140
129
147
121
109
166
140
129
167
142
130
167
144
131
214
191
178
224
201
188
225
202
189
225
202
189
103
80
67
78
55
42
159
136
123
115
92
79
136
113
101
102
76
64
167
142
130
168
143
131
168
143
131
167
142
130
167
142
130
167
142
130
167
144
131
164
141
129
100
77
64
163
142
128
121
98
85
222
200
187
224
201
188
226
203
190
226
203
190
226
203
190
226
203
190
226
203
190
219
196
183
143
120
107
168
145
132
165
142
130
104
81
68
170
145
128
133
125
113
107
107
111
141
124
117
58
60
67
203
209
200
210
209
211
205
205
207
53
52
57
197
198
199
203
201
202
183
184
182
181
189
188
153
153
153
208
208
208
155
155
155
210
209
212
211
210
213
210
209
212
214
209
207
161
143
131
167
142
130
169
144
132
168
143
131
168
143
131
168
143
131
166
140
128
158
133
121
165
139
127
165
139
128
121
98
85
224
201
188
225
202
189
225
202
189
225
202
189
224
201
188
221
198
186
146
123
110
139
116
103
161
138
125
143
117
105
165
139
127
168
143
131
168
143
131
167
142
130
167
142
130
167
142
130
167
144
131
165
142
130
206
183
171
164
141
128
222
199
186
224
201
188
227
204
191
227
204
191
224
201
188
221
198
186
225
202
189
226
203
190
226
203
191
229
206
193
101
78
65
161
138
125
125
102
89
164
142
127
164
144
132
164
140
128
163
141
129
51
60
90
189
200
191
203
209
205
169
171
176
138
140
136
57
65
75
201
196
197
104
97
63
33
74
122
213
213
213
208
208
209
87
86
91
210
209
211
209
210
212
210
209
212
213
207
206
161
143
130
168
143
130
168
143
131
168
143
131
168
143
131
168
143
131
167
142
130
162
136
124
166
140
129
167
142
130
225
202
190
223
200
187
225
202
189
225
202
189
225
202
189
225
202
189
222
200
187
174
151
138
149
126
113
111
88
75
163
138
126
158
132
121
168
143
131
168
143
131
167
142
130
167
142
130
167
142
130
167
144
131
152
129
116
154
131
118
114
91
78
220
198
185
205
182
169
225
202
189
221
201
188
213
195
183
180
165
154
219
200
189
222
202
191
221
199
189
222
201
188
222
200
187
179
156
144
155
132
120
164
141
129
167
144
131
165
142
130
165
142
130
101
98
104
138
142
149
193
182
184
77
85
80
23
38
63
31
40
67
96
90
105
184
149
78
52
85
121
198
204
210
194
199
212
142
148
155
201
206
210
207
209
210
209
209
212
209
203
202
163
144
132
168
143
130
166
140
129
167
142
130
167
142
130
167
142
130
166
141
129
158
133
121
167
142
130
136
110
98
220
197
184
223
200
187
225
202
189
141
117
105
225
201
189
224
201
188
226
203
190
212
189
176
155
132
120
164
141
128
161
138
125
87
64
52
167
144
131
167
144
131
168
143
131
168
143
131
168
143
131
167
144
131
166
143
130
91
68
55
215
193
180
174
151
138
230
207
194
219
201
189
215
199
186
58
45
33
29
21
12
38
32
23
33
26
17
106
93
79
221
200
189
224
201
188
224
201
188
169
146
133
167
144
131
167
144
131
167
144
131
167
144
131
153
138
123
46
76
103
73
77
71
196
175
112
20
46
92
28
39
70
32
44
72
86
101
102
210
191
112
145
167
182
45
67
79
126
144
158
138
151
169
200
205
219
209
208
212
169
165
161
167
144
129
168
143
130
167
142
130
167
142
130
167
142
130
167
142
130
161
136
124
145
120
108
141
118
105
229
206
193
225
201
186
212
191
181
119
98
90
95
73
67
171
150
143
220
196
190
221
199
191
217
196
184
152
132
118
170
147
135
222
199
186
126
103
90
155
132
120
166
143
130
168
143
131
168
143
131
168
143
131
155
132
119
222
199
187
224
201
188
226
203
190
212
188
178
218
199
188
105
90
81
64
56
46
52
50
44
31
31
27
147
147
141
161
162
159
52
46
39
200
184
176
222
201
191
225
202
189
171
148
135
167
144
131
167
144
131
167
144
131
165
142
130
164
140
124
41
65
126
55
79
128
207
180
91
48
94
138
46
79
129
39
65
119
39
77
142
114
142
103
86
106
122
90
109
126
148
168
186
126
144
163
153
168
192
164
178
189
107
107
102
167
144
127
167
143
130
168
143
130
167
142
130
167
142
130
167
142
130
165
139
127
120
96
83
217
199
186
218
201
190
208
191
182
37
29
23
44
42
37
61
59
54
39
36
31
38
28
23
53
41
32
212
199
188
206
188
174
221
199
186
225
202
189
226
203
190
141
118
105
173
150
138
167
142
130
168
143
131
167
141
130
183
160
147
224
201
188
224
201
188
224
201
188
220
199
188
117
104
97
170
162
158
187
184
176
54
34
16
63
37
24
47
29
12
192
194
190
192
193
192
94
84
79
214
197
189
199
176
163
164
141
129
167
144
131
167
144
131
167
144
131
167
145
128
178
139
132
43
49
61
32
77
140
135
142
105
181
174
126
38
78
141
20
42
85
45
74
132
35
87
139
150
166
181
195
211
216
193
205
215
154
171
183
55
70
90
150
161
171
123
119
115
167
144
127
167
143
129
167
143
129
167
142
128
167
142
128
167
142
128
165
141
129
116
93
79
221
200
189
214
204
202
180
178
176
169
169
167
167
166
162
75
81
84
30
25
19
86
82
82
128
129
136
119
108
101
219
200
191
223
200
187
224
201
188
224
201
188
224
201
188
205
182
169
162
138
126
167
144
131
95
72
60
223
200
187
225
202
189
225
202
189
225
201
189
222
203
190
173
165
161
25
26
20
205
191
174
114
67
28
104
58
21
112
60
27
67
47
39
214
211
211
214
206
204
220
200
191
131
108
95
159
136
124
167
144
131
167
144
131
167
144
131
163
142
130
168
141
132
156
140
135
39
86
138
48
92
125
213
190
103
41
79
137
45
74
145
84
89
107
41
79
145
174
175
178
201
206
206
207
211
210
208
209
212
166
159
156
146
126
113
162
141
127
166
143
124
167
144
127
167
144
127
167
142
128
167
142
128
167
142
128
165
142
130
117
94
80
222
201
189
163
157
156
178
177
177
205
205
203
71
69
65
124
105
88
101
61
30
88
51
29
36
19
11
177
166
163
222
202
195
224
201
188
225
202
189
225
202
189
225
202
189
225
202
189
220
197
184
128
105
92
224
201
188
224
201
188
225
202
189
225
202
189
226
201
189
220
204
191
214
209
206
56
39
16
121
68
23
56
29
6
55
22
0
139
78
28
83
61
40
212
210
210
220
213
211
218
197
186
123
100
87
163
140
128
166
143
130
167
144
131
163
140
127
122
99
87
165
142
129
161
140
127
41
70
110
37
76
146
157
162
123
119
125
112
44
73
105
36
46
66
27
50
47
123
120
119
208
207
206
215
206
210
210
206
208
187
180
175
167
140
127
169
141
126
165
143
126
167
144
127
167
144
127
167
142
128
167
142
128
167
142
128
165
142
130
133
110
96
219
201
189
193
189
186
215
212
213
167
166
166
81
53
29
114
63
20
91
56
29
113
66
27
97
66
40
152
156
152
222
203
191
225
202
189
225
202
189
225
202
189
225
202
189
225
202
189
224
201
188
225
202
189
225
202
189
225
202
189
225
202
189
225
202
189
222
203
189
221
204
189
210
207
204
97
69
43
189
116
48
62
36
15
52
22
0
186
123
61
127
85
67
214
212
207
164
154
147
215
198
188
154
131
119
165
142
130
166
143
130
167
144
131
164
141
129
108
85
72
163
140
127
163
140
125
62
60
66
34
79
147
52
75
117
160
138
118
160
138
118
104
98
85
35
46
47
196
195
195
61
63
43
138
141
130
210
207
210
200
191
185
104
79
65
166
140
127
165
143
126
167
144
127
167
144
127
167
142
128
167
142
128
167
142
128
165
142
130
161
138
125
212
196
183
214
212
205
216
212
211
145
134
124
131
82
41
176
103
44
38
21
10
97
60
29
145
88
38
124
110
93
220
201
189
225
202
189
225
202
189
225
202
189
225
202
189
225
202
189
225
202
189
225
202
189
226
203
190
225
202
189
225
202
189
225
202
189
222
203
189
222
204
189
212
209
204
92
65
42
198
120
56
196
132
61
213
183
132
188
139
76
220
213
224
216
213
205
143
129
121
219
200
190
164
141
129
164
141
129
166
143
130
163
140
128
162
139
126
162
139
127
165
140
125
163
141
126
149
129
121
53
73
118
87
93
100
164
139
121
163
138
121
118
107
96
35
47
45
27
52
76
66
70
62
141
119
77
25
50
77
87
76
69
138
113
101
166
141
127
164
142
127
167
144
129
167
144
129
167
142
128
167
142
128
167
142
128
167
142
128
171
146
134
218
200
188
184
180
171
214
212
210
165
158
151
177
115
66
195
115
47
59
28
4
127
78
32
182
121
59
179
165
147
226
204
192
226
203
190
225
202
189
225
202
189
225
202
189
225
202
189
225
202
189
225
202
189
225
202
189
225
202
189
225
202
189
225
202
189
224
202
189
223
203
191
218
207
196
215
205
191
165
119
79
227
209
127
221
207
134
213
184
133
215
212
207
219
219
207
221
204
193
134
113
102
163
140
128
164
141
129
166
143
130
164
141
129
85
62
49
165
140
125
165
139
125
163
140
125
112
90
75
122
112
103
164
137
127
167
138
125
167
138
125
105
95
84
35
48
46
24
44
80
63
70
62
194
178
129
39
74
131
118
114
107
157
132
120
161
139
123
164
142
127
165
143
128
167
144
129
167
142
128
167
142
128
167
142
128
167
142
128
166
140
128
183
162
151
126
115
105
212
214
202
211
213
198
136
82
38
196
123
38
224
174
101
190
123
46
207
148
107
212
214
206
226
203
191
225
202
189
225
202
189
225
202
189
225
202
189
225
202
189
225
202
189
225
202
189
225
202
189
225
202
189
225
202
189
225
202
189
224
202
189
223
203
189
224
203
187
214
208
198
213
213
204
222
213
207
216
214
207
217
214
208
211
212
210
203
195
181
216
194
183
150
127
114
164
141
129
164
141
129
164
141
129
166
143
131
160
137
124
165
141
127
165
140
125
165
140
125
149
126
112
163
140
129
163
140
127
164
139
125
167
138
125
76
69
60
32
41
40
25
55
99
90
103
93
197
188
124
44
76
141
103
97
96
157
132
120
119
96
81
165
143
128
165
143
128
167
144
129
167
142
128
167
142
128
167
142
128
167
142
128
167
142
128
94
69
57
217
193
182
159
146
134
209
212
206
219
201
211
155
124
62
222
209
140
223
208
140
132
104
53
223
210
197
227
204
193
226
203
190
225
202
189
225
202
189
225
202
189
225
202
189
225
202
189
225
202
189
225
202
189
225
202
189
225
202
189
225
202
189
224
202
189
223
203
189
222
202
188
221
203
191
217
201
192
221
206
198
225
210
202
214
195
188
215
192
185
220
193
181
214
189
176
168
143
131
164
141
127
163
141
126
160
137
124
123
100
87
161
138
125
164
141
129
164
141
128
167
145
131
162
139
126
163
140
127
164
141
129
164
141
129
165
137
126
39
38
30
33
35
38
34
78
143
90
104
108
200
193
123
44
77
141
100
91
91
107
82
70
161
138
125
147
124
111
164
141
129
165
142
130
167
142
128
167
142
128
167
142
128
167
142
128
167
142
128
153
128
113
216
187
176
223
192
184
215
202
190
214
210
205
215
211
205
221
213
202
214
208
196
217
209
200
224
201
192
223
202
191
223
202
191
225
201
191
225
201
191
225
201
191
225
201
191
224
200
190
224
200
190
225
201
191
225
202
189
225
202
189
225
202
189
224
201
188
224
201
188
224
201
188
224
201
188
224
199
187
224
196
185
220
189
184
222
186
183
223
193
187
231
205
196
145
120
106
165
140
125
166
141
127
163
138
124
109
84
69
162
137
123
167
142
128
167
142
128
167
142
128
100
75
61
165
140
125
165
140
125
166
141
127
164
141
127
155
138
126
33
30
22
31
35
31
35
78
147
83
100
106
165
156
128
40
76
141
104
92
93
148
123
111
159
136
123
165
142
130
158
135
123
164
141
129
120
95
81
161
136
122
166
141
127
167
142
128
167
142
128
166
141
127
202
174
163
220
190
180
227
197
187
224
194
181
225
195
182
212
183
170
220
198
183
223
201
188
222
201
188
222
201
190
222
201
190
225
201
191
225
201
191
225
201
191
225
201
191
224
200
190
225
199
190
226
201
191
225
202
189
225
202
189
225
202
189
224
201
188
224
201
188
224
201
188
223
200
187
223
197
188
222
194
185
221
190
182
222
188
182
221
187
180
213
185
176
145
120
108
166
141
127
166
141
125
163
138
121
163
138
123
166
141
127
167
142
128
167
142
128
159
134
120
168
143
129
165
140
125
165
140
125
166
141
127
165
141
127
149
135
120
36
30
3
38
38
12
33
77
147
74
89
100
100
105
104
38
76
142
115
115
106
164
139
128
144
121
108
162
139
126
103
80
68
164
141
129
165
140
125
126
101
87
163
138
123
165
140
125
167
142
128
168
141
128
119
88
78
218
187
178
230
203
193
222
190
182
224
192
184
223
193
184
222
196
185
222
199
188
223
200
189
222
201
190
222
201
190
225
201
191
225
201
191
225
201
191
225
201
191
225
199
190
221
195
185
219
194
184
226
201
189
225
202
189
225
202
189
224
201
188
224
201
188
224
201
188
223
200
187
223
197
188
222
194
185
223
189
182
221
186
179
221
186
179
187
156
149
163
138
126
165
140
125
163
139
122
161
136
120
162
137
123
166
141
127
167
142
128
164
139
124
110
85
70
166
141
127
166
141
127
160
135
121
165
140
125
161
137
122
84
75
50
45
44
11
44
45
7
34
49
88
147
142
131
160
134
137
52
73
112
137
123
121
161
137
123
120
97
84
163
140
127
163
140
127
112
89
77
165
140
125
168
143
128
130
105
91
165
140
125
166
141
127
167
142
128
167
144
131
222
193
182
222
186
180
223
188
182
224
191
184
224
192
185
223
195
186
224
198
189
224
200
190
224
200
190
224
200
190
225
201
191
225
201
191
225
201
191
225
201
191
225
199
190
222
194
185
220
192
183
226
201
189
225
202
189
225
202
189
224
201
188
224
201
188
224
201
188
223
200
187
223
197
188
222
194
185
223
191
183
223
188
182
214
179
172
143
115
106
160
135
123
93
68
53
164
139
125
165
140
126
165
140
125
166
141
127
164
139
124
132
107
92
166
141
127
164
139
124
134
109
95
116
91
77
163
141
125
156
137
120
56
49
18
43
48
5
45
51
5
64
44
38
158
136
119
164
137
120
135
132
117
145
128
113
164
139
124
163
138
124
159
134
119
165
140
125
165
140
126
108
83
69
164
139
124
163
138
124
124
99
85
166
141
127
166
141
127
166
141
127
111
82
71
218
185
175
222
189
180
223
190
183
224
193
185
225
196
188
226
197
189
224
199
190
224
200
190
224
200
190
225
199
190
225
199
190
225
199
190
225
199
190
226
201
191
224
198
189
227
201
192
224
201
188
224
201
188
224
201
188
224
201
188
224
201
188
224
201
188
223
200
187
223
197
188
223
195
186
224
192
184
222
189
182
101
68
61
156
128
119
107
84
74
164
138
126
165
140
125
166
141
127
162
137
123
166
141
127
142
117
103
100
75
61
164
139
124
164
139
124
95
70
55
153
130
115
161
140
124
62
48
31
44
44
5
40
41
9
39
42
10
26
16
3
155
134
119
164
139
120
164
139
120
164
143
129
164
139
122
164
139
124
103
78
64
163
138
124
166
141
127
165
140
125
105
80
66
164
139
125
158
133
119
105
80
66
165
140
125
165
140
125
166
139
128
198
168
158
220
188
179
220
190
182
224
193
185
225
196
188
226
197
189
225
199
190
225
199
190
225
199
190
225
199
190
225
199
190
225
199
190
225
199
190
226
201
191
223
197
188
222
196
187
224
201
188
224
201
188
224
201
188
224
201
188
224
201
188
224
201
188
224
201
188
224
198
189
224
196
188
223
195
186
221
191
183
223
192
184
215
189
179
160
137
126
165
139
128
166
140
129
123
98
86
160
135
121
148
123
108
81
56
42
151
126
112
164
139
124
153
128
113
109
84
70
161
136
124
87
73
59
43
37
9
40
40
3
38
41
5
38
40
6
27
12
4
154
137
123
164
137
123
165
140
124
166
141
125
166
141
125
165
140
125
161
136
122
152
127
113
166
141
127
167
142
128
166
141
127
161
136
122
92
67
53
156
131
117
153
128
114
142
117
103
161
136
124
161
136
124
216
191
179
220
192
183
222
194
185
223
197
188
224
198
189
225
199
190
225
199
190
225
199
190
225
199
190
225
199
190
225
199
190
225
199
190
226
201
191
226
201
191
225
199
190
224
201
188
224
201
188
224
201
188
224
201
188
224
201
188
224
201
188
224
201
188
225
199
190
225
199
190
223
197
188
223
195
186
221
193
184
222
196
187
162
139
129
164
138
126
158
132
120
114
88
76
148
123
109
99
74
60
114
89
74
154
129
115
157
132
118
90
64
52
117
91
82
112
86
76
25
15
2
26
20
3
29
21
3
30
22
4
30
22
4
25
12
5
47
32
20
161
136
122
164
139
124
165
140
123
161
136
120
166
141
127
165
140
125
122
97
82
157
132
117
166
141
127
166
141
127
167
142
128
166
141
127
166
141
127
166
141
127
136
113
98
199
174
161
113
90
77
125
102
89
219
191
182
222
195
185
223
197
188
224
198
189
225
199
190
225
199
190
225
199
190
225
199
190
225
199
190
225
199
190
225
199
190
225
199
190
225
199
190
225
199
190
224
201
188
224
201
188
224
201
188
224
201
188
224
201
188
224
201
188
224
201
188
224
201
188
224
201
188
224
200
187
223
197
187
223
195
186
186
160
151
164
138
128
165
139
129
113
87
78
109
83
74
113
87
75
111
86
74
110
85
73
158
135
123
105
82
70
104
81
68
97
75
66
34
15
4
28
17
3
26
16
4
27
15
4
28
13
6
26
14
4
25
12
5
26
14
3
149
126
114
161
137
125
165
138
123
165
140
123
123
98
84
162
137
122
146
121
107
97
72
58
161
136
122
164
139
124
155
130
115
165
140
125
166
141
127
166
141
127
163
141
125
173
151
138
220
199
186
218
195
182
201
177
167
224
198
189
224
198
189
225
199
190
225
199
190
225
199
190
225
199
190
225
199
190
225
199
190
225
199
190
225
199
190
225
199
190
225
199
190
225
199
190
224
201
188
224
201
188
224
201
188
224
201
188
224
201
188
224
201
188
224
201
188
224
201
188
224
201
188
224
201
188
224
199
189
224
198
189
155
129
120
165
139
129
154
128
118
92
67
57
110
84
75
109
81
71
113
85
74
142
115
103
120
97
84
64
44
33
51
37
25
27
17
5
26
15
5
27
15
3
26
15
3
26
15
3
25
14
4
25
14
4
25
12
5
22
10
1
30
16
5
152
132
120
165
137
125
162
137
123
151
126
112
113
88
74
157
132
118
115
87
74
71
46
31
162
137
122
164
139
124
127
102
88
164
139
124
165
140
125
163
141
125
119
96
83
214
194
180
222
200
187
224
200
190
225
199
190
225
199
190
225
199
190
225
199
190
225
199
190
225
199
190
225
199
190
225
199
190
225
199
190
225
199
190
225
199
190
225
199
190
225
199
190
224
201
188
224
201
188
224
201
188
224
201
188
224
201
188
224
201
188
224
201
188
224
201
188
224
201
188
224
201
188
224
199
189
219
193
184
98
73
63
159
135
125
108
87
76
85
64
53
101
74
65
111
83
72
112
81
71
135
107
96
87
77
63
24
14
0
25
17
5
23
15
4
24
15
4
26
14
4
23
15
4
21
15
4
22
13
3
22
13
3
24
11
4
21
10
3
22
12
2
48
31
23
142
116
108
163
138
126
163
138
123
115
90
75
115
88
74
138
108
95
110
85
71
89
64
50
158
133
119
118
93
79
132
107
93
165
140
125
165
140
125
163
140
127
90
69
55
219
196
183
223
199
189
226
201
191
226
201
191
226
201
191
225
199
190
225
199
190
225
199
190
225
199
190
225
199
190
225
199
190
225
199
190
225
199
190
225
199
190
227
199
190
224
200
188
224
201
188
224
201
188
224
201
188
224
201
188
224
201
188
224
201
188
224
201
188
224
201
188
223
200
187
225
200
189
98
72
62
110
84
75
155
131
121
96
75
64
71
50
39
105
80
70
111
82
72
116
86
76
107
80
69
22
17
1
21
23
6
17
19
5
19
20
4
21
19
7
23
18
8
18
20
8
17
21
8
18
19
7
17
18
6
21
9
2
17
8
0
17
8
0
22
10
3
82
64
56
126
102
92
161
136
124
146
119
105
115
85
72
113
83
71
113
83
71
112
84
71
78
51
38
153
125
114
113
85
74
144
116
105
166
140
129
162
138
126
114
91
78
99
76
64
222
200
187
221
198
186
224
201
188
224
201
188
224
201
188
224
201
188
224
201
188
224
201
188
224
201
188
224
201
188
224
201
188
224
201
188
222
201
188
214
193
180
223
200
188
225
200
188
225
200
188
225
200
188
225
200
188
225
200
188
225
200
188
224
201
188
223
200
187
223
199
187
131
106
95
111
86
76
110
84
75
101
76
66
103
79
69
99
76
66
106
83
72
109
82
72
111
82
71
34
35
14
33
59
30
28
57
29
27
57
27
26
55
27
26
55
27
27
55
27
26
55
27
26
55
27
26
55
27
24
54
26
20
10
2
17
8
0
15
9
0
14
10
2
14
10
1
90
70
62
119
91
82
160
134
122
117
89
76
112
84
71
112
83
71
112
84
72
110
82
74
79
51
40
109
82
71
115
89
78
145
117
106
160
133
122
159
133
122
97
74
62
105
82
69
217
194
181
224
201
188
224
201
188
224
201
188
224
201
188
224
201
188
224
201
188
224
201
188
224
201
188
224
201
188
225
198
187
139
101
94
191
149
143
176
142
133
225
200
188
225
200
188
225
200
188
225
200
188
225
200
188
225
200
188
224
201
188
223
198
185
100
74
63
111
85
75
110
85
75
109
83
74
77
50
41
109
82
74
96
80
67
114
90
80
109
83
72
72
65
47
35
71
35
37
70
34
37
72
34
37
72
34
37
71
35
35
71
33
35
71
32
35
71
32
37
71
32
37
70
32
37
70
32
18
10
2
14
10
0
11
10
0
8
10
0
6
13
1
14
14
0
86
66
58
109
83
74
138
112
100
106
80
69
111
83
72
114
86
76
112
83
75
111
82
74
69
42
30
89
66
54
110
85
73
136
106
96
162
135
123
136
110
98
106
83
70
106
83
70
197
171
159
225
200
188
224
201
188
224
201
188
224
201
188
224
201
188
224
201
188
224
201
188
224
201
188
224
201
188
221
200
187
222
201
188
224
201
188
226
201
189
226
201
189
225
200
188
225
200
188
225
200
188
225
200
188
219
196
183
88
63
51
114
86
75
112
83
74
110
83
74
109
82
74
100
71
62
108
82
71
45
58
33
109
84
75
97
80
66
41
64
36
35
71
34
35
71
32
36
72
33
38
72
33
38
71
33
38
71
33
38
71
33
35
68
30
38
71
33
37
71
32
37
71
32
16
11
2
13
11
0
7
11
0
6
13
0
7
14
0
8
18
3
17
18
2
57
44
30
104
84
73
112
81
74
111
83
72
90
61
53
112
84
75
113
83
75
112
83
75
47
26
15
103
78
68
107
79
70
114
85
77
154
129
119
77
54
43
111
85
76
112
84
75
76
48
39
221
195
185
224
198
189
225
199
190
224
201
188
224
201
188
224
201
188
224
200
188
225
200
188
225
200
188
226
199
188
225
200
188
226
201
189
226
201
189
226
201
189
226
201
189
223
198
186
218
193
181
110
87
74
111
86
74
112
82
72
114
82
74
111
78
71
114
78
72
105
84
71
40
39
19
30
64
32
80
67
52
70
65
47
29
65
32
29
67
28
33
67
28
32
67
30
33
66
30
33
64
29
33
63
28
33
63
28
33
63
28
33
63
28
33
63
28
33
63
28
15
11
2
7
10
0
8
12
0
6
15
0
8
17
3
9
19
3
13
19
4
8
24
3
21
24
7
93
76
66
109
82
73
108
81
71
97
69
60
111
82
73
111
83
75
107
84
74
107
81
72
105
80
70
83
56
47
105
80
70
120
96
86
105
79
70
110
81
74
112
83
75
112
85
76
93
68
57
213
188
174
220
197
185
221
200
187
224
201
188
224
200
188
225
200
188
225
200
188
225
200
188
225
200
188
226
201
189
226
201
189
225
201
188
223
198
184
163
138
125
162
137
124
109
86
73
110
85
73
111
84
73
105
83
72
61
45
32
99
81
69
42
47
25
28
56
26
28
56
26
29
50
23
30
40
17
29
55
26
26
57
24
28
60
24
29
57
25
29
57
25
28
57
22
28
57
22
28
57
22
28
56
24
28
56
24
28
57
22
28
57
22
8
10
0
6
15
0
7
16
2
7
16
2
9
18
4
12
21
5
11
23
5
12
25
5
13
23
4
21
26
8
32
28
11
81
70
56
104
87
75
69
49
38
108
85
75
110
84
75
107
79
70
109
81
72
108
84
75
89
68
57
93
70
60
60
37
26
107
84
74
108
85
75
108
82
72
155
112
101
181
129
119
108
71
58
209
190
173
225
198
186
225
199
186
225
200
188
225
200
188
225
200
188
225
200
188
225
200
188
225
200
186
220
197
180
121
84
68
185
131
121
172
126
116
107
86
71
109
85
73
104
87
73
37
38
18
68
62
46
27
36
14
31
44
21
27
47
19
25
47
19
26
45
20
26
42
16
25
47
19
27
48
18
27
50
22
25
50
19
26
51
20
25
50
16
26
51
18
25
50
18
25
50
18
23
48
19
22
47
16
22
47
16
8
12
0
7
16
2
8
17
3
9
19
4
12
21
6
14
24
7
13
25
8
13
26
6
14
26
6
15
26
7
16
28
6
18
28
6
27
29
10
72
64
49
93
71
60
111
80
72
77
50
41
111
80
72
108
82
73
86
64
53
109
83
74
108
82
72
107
84
74
109
84
75
110
84
75
82
45
34
184
131
113
188
130
113
184
137
121
147
110
95
206
171
160
225
200
188
225
200
188
225
200
186
225
201
191
223
198
186
138
109
94
173
136
121
186
131
120
185
130
119
169
121
110
104
86
69
90
80
63
37
42
19
24
38
14
21
42
17
20
41
16
19
41
15
20
40
15
20
40
15
20
39
14
20
40
13
21
42
14
23
43
16
24
44
17
23
43
18
24
44
17
24
45
15
25
46
16
24
44
17
24
44
17
24
44
17
23
43
16
23
43
16
8
14
1
7
17
3
9
21
5
13
22
7
14
24
7
16
26
7
19
28
9
17
27
8
17
27
8
15
25
6
13
26
6
13
26
6
17
29
9
19
30
10
37
28
15
99
80
70
28
30
14
48
43
28
105
77
71
102
80
71
40
20
11
106
84
76
106
81
73
108
81
74
110
82
75
108
75
66
185
131
114
184
132
112
187
132
115
180
133
117
178
132
121
165
124
111
122
92
78
207
182
166
165
134
120
164
123
110
180
133
119
186
132
118
189
131
119
185
131
117
169
119
111
33
32
11
19
34
10
20
35
12
19
35
11
20
35
12
20
35
12
20
35
12
20
35
12
18
34
11
18
34
11
17
34
10
18
36
12
21
38
14
22
39
15
20
38
14
21
39
15
21
40
14
21
39
14
20
39
13
22
37
14
22
37
14
20
38
14
20
39
13
7
16
2
9
20
5
11
23
5
14
23
7
16
26
7
19
29
9
19
28
9
17
27
8
17
27
8
16
26
7
13
26
6
12
25
5
12
25
5
12
29
7
19
28
9
68
66
50
18
29
9
16
26
7
19
21
5
49
39
27
88
80
66
32
21
9
94
79
68
108
81
74
111
80
74
111
79
69
185
130
118
184
131
115
187
132
116
187
132
118
186
130
116
188
131
116
187
131
118
185
131
120
183
132
116
186
133
118
188
131
116
192
129
118
190
129
117
183
130
110
147
112
99
20
32
11
16
33
8
18
33
9
17
32
8
17
32
8
17
32
8
17
32
8
17
32
8
15
31
7
15
31
7
14
31
7
16
34
10
16
34
10
17
35
11
18
36
12
19
36
12
18
36
11
16
34
10
18
33
10
19
34
11
22
34
12
20
35
12
20
35
12
6
18
3
10
22
5
13
25
8
16
26
9
19
28
9
20
30
10
20
30
10
17
27
8
17
27
8
16
26
7
15
27
7
11
24
4
11
23
3
8
23
4
13
24
7
18
24
6
11
25
5
10
22
2
10
22
2
14
26
6
19
28
9
21
28
10
25
29
13
56
44
32
98
82
72
101
85
69
226
187
173
182
131
119
187
132
118
187
132
118
187
132
118
187
132
118
187
132
118
187
132
118
187
132
118
187
132
119
184
130
116
186
128
116
175
131
117
106
81
83
26
37
54
17
30
10
17
29
9
17
29
9
18
30
8
18
31
8
18
31
8
18
31
8
18
31
8
17
30
7
16
29
6
11
26
2
8
23
2
12
27
6
14
29
8
15
33
11
15
32
10
11
28
6
10
28
4
14
29
6
18
31
8
20
33
11
19
32
9
18
33
9
9
20
5
11
23
6
16
28
8
17
29
9
18
30
10
18
30
10
20
30
10
19
28
9
19
28
9
17
27
8
15
27
7
12
25
5
9
21
3
8
20
2
9
20
4
14
22
4
8
20
0
7
19
0
6
22
1
11
25
5
14
28
7
16
30
9
19
32
11
21
32
13
23
31
13
26
28
16
49
58
88
104
97
109
161
135
133
175
135
117
184
129
119
181
131
121
178
130
110
171
126
104
146
98
79
144
96
79
153
115
97
59
52
63
29
38
66
27
42
79
33
44
71
17
31
14
18
30
13
18
30
12
16
30
10
16
31
10
16
31
10
15
30
9
16
28
8
16
28
8
15
27
7
11
23
3
5
20
0
4
18
0
5
19
1
9
23
3
9
23
3
6
21
0
7
22
1
13
28
7
15
30
9
17
31
10
16
31
10
16
31
10
11
23
7
13
25
7
17
29
9
18
30
10
18
30
10
18
30
10
20
30
10
19
28
9
19
28
9
17
27
8
15
27
7
12
25
5
9
21
3
6
18
1
7
18
3
11
23
3
5
18
0
5
20
0
7
22
1
11
26
5
15
27
7
15
29
8
16
31
10
18
32
11
20
32
13
18
33
15
47
71
121
32
70
144
47
68
127
39
71
127
21
40
65
37
30
31
157
132
88
215
190
135
186
148
88
153
112
50
32
43
55
32
38
78
22
49
95
35
68
122
44
67
114
14
33
14
19
30
13
16
28
10
16
30
10
16
31
10
16
31
10
16
28
8
16
28
8
16
28
8
15
27
7
11
23
3
5
17
0
4
16
0
9
20
5
12
26
10
6
20
2
4
18
0
7
22
1
13
28
7
15
30
9
16
31
10
16
31
10
16
31
10
11
23
7
13
25
7
17
29
9
18
30
10
18
30
10
18
30
10
20
30
10
19
28
9
19
28
9
17
27
8
15
27
7
12
25
5
9
21
1
8
20
0
8
20
0
16
28
8
9
22
2
5
20
0
7
22
1
9
24
3
13
26
6
15
27
7
15
31
9
20
29
10
107
97
84
205
184
173
48
68
122
38
68
149
37
69
145
31
73
138
32
74
136
53
71
118
218
198
144
183
148
77
187
146
79
189
150
86
42
66
108
38
73
139
38
75
131
38
60
88
177
165
173
209
196
182
69
61
47
24
26
7
21
28
8
21
28
9
19
28
9
18
27
8
15
27
7
15
27
7
13
26
6
12
25
5
9
21
3
4
16
0
9
20
5
9
23
7
9
24
5
5
19
1
8
23
2
13
28
7
15
30
9
16
31
10
16
31
10
16
31
10
11
23
7
14
26
7
17
29
9
18
30
10
18
30
10
18
30
10
20
30
10
19
28
9
18
27
8
16
26
7
13
25
6
13
25
5
10
22
2
9
21
1
9
21
1
5
18
0
8
20
0
6
20
0
8
22
1
11
24
4
11
27
6
22
28
9
43
36
19
209
196
181
220
198
187
221
202
192
181
172
171
72
86
110
50
68
97
42
66
112
44
72
124
52
76
121
193
179
121
198
174
97
184
163
101
146
127
67
98
84
93
156
147
149
217
202
194
215
197
180
216
197
184
219
198
187
219
198
187
212
195
182
200
185
173
94
84
71
28
29
12
18
27
8
17
29
8
14
27
6
13
25
5
12
25
5
10
22
3
5
17
0
7
19
1
4
18
1
5
19
1
7
22
3
9
23
3
13
26
6
16
28
8
17
29
9
18
30
10
18
30
10
12
24
9
13
25
7
17
29
9
18
30
10
18
30
10
18
30
10
19
28
9
19
28
9
16
26
7
16
26
7
14
24
5
13
23
3
13
23
3
10
22
2
8
20
0
8
20
0
9
21
1
8
20
0
9
21
1
11
24
4
16
24
6
161
151
137
214
193
180
221
200
185
220
200
184
219
199
183
219
199
184
219
198
187
218
195
184
220
195
184
222
195
186
221
194
186
219
195
186
219
198
183
216
196
178
219
199
181
219
199
185
217
197
183
220
199
186
220
199
186
220
199
186
220
199
188
220
199
188
220
199
188
221
200
189
220
197
187
217
194
184
216
194
183
194
176
163
97
87
72
18
17
0
12
18
0
10
20
2
10
22
2
12
25
5
10
24
6
9
24
5
10
23
4
11
23
3
13
24
5
15
25
6
17
27
8
18
28
9
19
30
10
12
24
9
13
25
7
16
28
8
17
29
9
17
29
9
17
29
9
17
27
8
17
27
8
14
24
5
14
24
5
13
23
3
11
20
1
13
23
3
11
23
3
16
28
8
18
30
10
15
25
6
10
23
2
9
23
2
43
39
23
210
196
183
216
196
182
219
198
182
220
200
184
221
201
185
221
201
185
221
201
185
221
201
183
219
199
180
219
198
180
219
198
181
219
198
181
219
198
182
220
200
184
134
114
97
220
199
185
221
201
185
219
198
184
220
199
186
220
199
186
220
199
186
220
199
188
220
199
188
220
199
188
220
199
188
220
199
188
216
197
185
216
197
185
220
197
186
220
197
186
215
196
184
199
194
181
61
60
49
39
49
65
11
23
18
19
28
6
19
30
8
14
29
5
10
24
3
11
25
5
15
25
6
15
29
9
16
31
10
16
30
10
12
24
9
13
25
7
15
27
7
17
29
9
17
29
9
17
29
9
16
26
7
15
25
6
13
23
3
12
21
2
10
20
1
10
21
1
11
23
3
16
28
9
20
33
13
19
32
11
19
32
11
32
32
13
198
186
171
220
195
182
218
195
182
218
197
181
219
198
182
220
200
184
221
201
185
221
201
185
221
201
185
221
201
185
221
201
185
220
200
184
220
200
184
220
200
184
220
200
184
213
196
176
194
175
150
217
196
171
222
200
187
221
199
186
220
199
186
220
199
186
220
199
186
220
199
188
220
199
188
220
199
188
220
199
188
221
200
189
220
199
188
219
198
186
219
198
186
220
199
188
217
196
185
217
193
185
212
188
184
40
71
137
38
49
76
205
187
172
211
193
177
208
189
176
209
192
180
181
166
156
128
125
110
67
68
51
34
34
18
29
33
16
12
24
9
12
24
6
15
27
7
16
28
8
17
29
9
17
29
9
15
25
6
13
23
4
13
23
3
13
23
3
12
21
2
10
21
2
12
24
12
20
30
8
29
33
14
52
46
30
195
180
165
215
195
183
220
197
184
220
196
183
220
197
182
220
198
182
220
198
182
221
199
184
222
200
185
222
200
185
222
200
185
221
199
184
221
199
184
221
199
184
221
199
184
221
199
184
219
202
180
222
205
167
231
212
177
223
208
145
115
96
60
213
190
178
220
199
186
221
200
187
219
198
184
220
199
188
220
199
188
220
199
188
221
199
187
222
200
187
222
200
187
221
198
186
221
198
186
221
198
186
220
197
185
219
195
184
214
190
179
30
48
84
48
67
130
216
195
192
216
193
179
215
195
181
214
192
182
214
192
182
212
191
180
212
191
180
208
188
177
208
189
177
12
24
9
12
24
6
13
26
6
15
27
7
16
28
8
16
26
7
13
26
6
11
25
5
12
25
5
12
24
5
14
22
0
8
23
15
55
58
96
170
166
150
210
197
184
215
196
184
215
194
181
216
196
184
218
197
181
220
198
182
220
198
182
220
198
182
219
198
182
220
200
184
220
200
184
221
201
185
221
199
184
221
199
184
221
199
184
221
199
184
221
199
184
219
194
180
128
109
66
224
207
174
212
192
121
197
179
98
198
181
96
195
172
144
219
196
183
219
198
184
217
197
183
217
199
184
217
199
185
217
199
185
220
199
186
221
199
186
219
196
183
219
196
183
220
197
185
219
196
183
216
196
182
218
196
183
214
191
178
154
152
155
39
75
133
170
165
175
210
194
180
214
194
180
215
194
183
215
194
183
213
192
181
213
192
181
212
191
179
213
188
177
12
24
9
12
24
6
13
26
6
17
24
6
13
28
7
16
28
8
21
27
9
87
84
70
196
183
172
204
188
177
203
190
173
40
69
117
69
76
101
213
193
182
211
193
181
214
193
182
99
80
68
195
177
165
214
194
181
219
197
182
219
197
181
219
197
181
222
195
181
221
195
181
220
198
182
220
200
184
219
196
181
219
197
181
220
198
182
220
198
182
220
198
182
218
194
179
129
106
50
208
181
98
209
184
91
205
181
91
204
180
97
156
130
99
219
195
183
218
197
183
216
196
180
221
196
181
220
195
178
219
194
177
218
195
180
218
195
182
218
195
182
217
194
181
218
195
182
193
172
159
120
102
87
222
202
188
214
191
178
209
191
182
38
70
131
71
80
103
211
190
175
212
191
178
213
192
181
213
192
181
211
190
178
211
190
178
212
191
179
211
190
178
11
23
7
11
25
6
19
23
5
28
25
9
165
154
141
206
187
176
211
189
179
212
190
180
211
190
179
210
191
178
162
148
148
37
69
129
204
188
191
213
195
181
214
194
181
215
194
181
214
194
182
214
194
183
214
193
180
191
170
153
146
125
109
115
91
76
108
80
67
107
78
65
123
96
82
131
107
93
156
135
119
221
200
184
211
190
174
217
196
181
216
196
180
214
190
176
131
95
46
211
178
93
207
179
90
209
184
98
205
181
99
194
166
146
215
194
180
216
196
182
218
189
178
183
146
137
172
135
124
133
104
91
104
77
65
145
121
109
182
159
146
207
184
171
215
193
180
212
191
178
214
194
180
214
193
180
214
192
179
211
191
176
38
67
111
50
61
104
210
188
174
210
190
176
212
191
179
212
191
179
210
189
178
209
188
177
209
188
177
208
187
176
11
23
7
27
29
14
197
182
172
201
186
174
211
190
178
212
189
178
213
190
179
213
190
179
213
190
179
213
189
178
122
115
120
41
63
102
215
187
187
215
194
179
215
195
181
215
195
181
215
194
183
214
193
182
214
193
180
214
194
178
214
194
178
215
194
178
214
194
178
214
194
178
213
193
177
215
195
179
216
196
180
216
196
180
164
144
128
174
154
138
218
198
182
213
193
177
126
108
94
152
114
63
203
165
96
202
166
97
92
66
45
146
137
126
209
189
175
182
161
148
127
108
94
211
193
178
209
191
176
210
192
178
214
192
179
216
193
180
216
193
180
216
193
180
214
193
180
214
193
180
214
193
180
214
193
180
214
193
180
211
188
174
63
60
83
50
66
117
209
187
167
209
189
175
210
189
178
210
189
178
209
188
177
208
187
176
207
186
175
206
185
174
17
26
9
199
183
171
208
188
174
209
186
176
209
188
177
212
189
178
212
189
178
212
189
178
212
189
178
212
189
177
81
83
91
64
73
90
211
192
179
213
192
181
213
192
181
213
192
181
213
192
181
214
193
182
214
193
180
214
193
180
214
194
178
214
194
178
214
194
178
214
194
178
214
194
178
215
195
179
216
196
180
216
196
180
214
194
178
214
194
178
209
192
182
217
188
172
31
49
58
129
99
67
56
37
17
39
43
38
148
112
69
39
59
106
200
182
184
211
191
177
212
191
177
214
191
179
214
191
179
213
192
179
213
191
179
216
193
180
216
193
180
216
193
180
213
192
179
213
192
179
213
192
179
213
192
179
214
193
180
210
187
174
146
135
135
43
72
119
201
175
175
208
188
174
208
187
176
207
186
175
206
185
174
206
185
174
205
184
172
204
183
171
125
116
103
203
183
171
207
186
173
209
186
173
209
186
173
210
187
174
211
187
177
211
187
177
211
187
177
210
186
176
48
61
70
96
99
111
210
192
177
211
193
181
213
192
181
213
192
181
213
192
181
214
193
182
214
193
182
214
193
180
214
193
180
214
194
178
214
194
178
214
194
178
214
194
178
214
194
178
214
194
178
215
195
179
214
194
178
214
194
178
212
191
178
187
172
173
38
77
120
108
116
98
31
67
113
33
53
81
118
126
117
101
110
110
44
65
90
211
189
176
211
191
177
213
192
179
213
192
179
213
192
179
213
191
179
214
191
179
214
191
179
214
191
179
212
191
177
212
191
177
212
191
177
211
190
176
212
191
177
211
188
176
199
186
180
44
75
134
200
178
162
206
185
172
206
185
174
205
184
172
203
182
171
203
182
171
202
181
170
202
181
170
196
177
168
203
183
168
205
185
169
204
183
167
205
184
171
206
185
172
209
186
173
210
187
174
211
188
175
206
183
171
38
54
79
122
126
124
207
189
172
209
191
176
212
191
177
212
191
177
212
191
177
212
191
180
212
191
180
212
191
180
213
192
179
214
193
180
214
193
180
214
193
180
213
192
179
213
192
179
213
192
179
214
193
180
212
191
178
213
192
179
209
189
173
57
52
79
96
112
101
34
73
115
34
70
138
95
95
112
44
72
124
192
182
94
38
75
131
103
95
115
207
190
182
211
190
176
212
191
178
212
191
178
212
190
176
212
189
176
212
189
176
212
189
176
212
189
176
212
189
176
212
189
176
209
188
176
208
187
176
206
185
172
194
176
168
46
73
122
173
161
155
203
183
169
204
183
171
202
181
170
202
181
170
202
181
170
201
180
169
200
179
168
