P3
# CREATOR: GIMP PNM Filter Version 1.1
64 64
255
18
19
13
20
25
19
106
67
28
35
32
8
18
10
7
33
15
11
50
16
14
14
10
10
12
14
13
27
30
9
27
20
8
21
13
8
21
14
11
27
15
12
51
16
11
49
15
8
62
17
10
37
18
12
18
17
12
59
40
17
173
106
6
252
124
3
253
134
2
252
124
2
253
129
3
252
133
3
252
132
2
253
123
2
252
127
3
253
119
3
253
116
3
252
111
4
254
110
3
253
100
7
252
95
6
253
95
5
253
98
3
252
90
4
252
88
6
251
80
5
253
90
6
252
98
5
252
107
3
252
109
3
251
94
4
252
104
3
228
119
7
72
30
9
21
10
3
28
19
7
25
19
6
24
14
7
61
10
4
121
5
4
108
6
3
76
26
5
32
29
6
20
20
9
15
13
7
41
10
5
49
12
5
54
22
5
49
31
7
26
15
6
23
26
15
22
24
18
31
33
13
20
12
9
44
17
17
62
16
17
41
11
11
9
12
12
26
27
12
21
16
8
20
14
8
18
15
10
38
16
12
70
15
9
72
17
12
54
16
10
22
18
13
76
53
12
169
130
22
246
166
6
253
118
2
253
120
3
253
117
2
253
128
2
253
134
2
252
129
2
252
127
2
252
128
4
252
122
4
253
127
4
253
123
4
253
118
5
252
113
3
253
107
5
253
94
6
252
94
9
252
93
9
252
94
5
253
81
6
254
79
6
253
80
7
252
79
8
252
73
7
251
96
7
251
116
7
251
118
4
251
111
3
224
119
5
56
20
7
23
12
6
30
23
5
34
26
7
23
12
5
57
11
6
100
7
5
94
10
6
102
25
5
59
35
7
23
18
8
41
29
9
50
12
8
57
20
5
50
26
7
31
21
6
19
22
15
45
49
12
24
15
14
52
15
14
69
16
15
44
11
12
7
10
12
19
21
13
19
13
8
15
13
11
18
13
10
21
15
9
53
16
8
68
21
9
43
24
12
112
83
15
212
165
11
250
187
4
252
177
2
251
154
2
252
115
2
252
127
2
253
137
3
253
154
2
252
170
3
252
171
3
252
146
3
253
126
3
252
120
4
253
125
7
252
118
6
252
114
7
253
113
6
253
111
6
252
106
6
253
101
10
253
100
8
252
101
5
253
90
7
252
85
6
253
78
6
253
78
8
253
74
6
253
73
7
252
78
7
251
93
4
252
103
4
252
110
4
192
84
5
29
14
8
25
11
6
63
44
7
34
23
7
21
14
4
47
11
4
87
7
3
89
6
5
113
11
8
50
18
7
24
17
6
83
42
11
62
15
8
58
26
8
42
28
6
20
24
16
24
16
12
56
17
17
79
14
15
47
10
10
8
9
9
10
11
13
20
15
11
12
12
10
13
13
10
20
15
11
75
40
13
182
121
8
210
149
8
231
173
8
252
192
3
252
190
3
253
179
2
252
164
2
252
121
2
253
113
2
251
125
3
251
153
4
252
155
3
252
127
4
252
123
4
252
129
4
252
134
3
252
137
3
252
139
2
253
140
3
253
132
4
252
137
4
252
128
4
252
104
9
252
100
8
252
103
11
252
105
9
252
103
5
253
103
5
253
99
6
253
79
5
253
69
8
253
68
6
252
66
10
252
69
8
251
82
7
252
104
4
252
113
3
115
45
6
23
14
6
28
15
7
54
35
6
24
18
7
25
17
6
49
14
7
76
10
4
82
7
5
83
8
5
28
13
6
35
24
8
100
31
16
64
25
7
59
27
8
16
16
15
47
18
17
72
17
19
70
12
13
10
9
11
7
8
10
17
11
11
10
9
10
12
12
10
19
13
10
84
50
11
238
177
4
253
188
2
253
188
2
253
196
2
253
183
2
253
171
2
252
177
2
252
165
2
252
119
2
252
121
2
253
136
4
251
105
7
251
96
9
248
114
13
251
111
19
248
112
26
250
116
22
249
111
15
250
128
8
252
138
4
253
134
2
252
109
2
252
109
2
253
90
2
252
96
3
253
96
3
253
93
6
252
94
6
252
99
5
252
100
4
252
99
5
253
82
6
253
72
5
253
67
7
252
67
10
253
68
10
252
66
12
252
75
9
238
53
12
36
11
5
27
15
6
13
7
2
37
18
6
21
16
7
35
29
10
71
34
7
64
9
5
66
10
6
66
9
4
26
13
7
24
15
9
69
18
11
55
28
7
42
18
20
71
18
21
87
13
16
18
9
10
6
7
8
11
11
9
12
9
8
10
10
8
19
12
9
64
30
14
235
162
4
252
190
2
254
192
2
253
190
1
252
197
2
252
197
3
252
201
3
251
193
4
251
164
4
251
118
3
251
142
5
250
122
5
250
95
10
249
52
27
251
47
54
251
110
116
246
92
44
245
93
43
246
82
52
248
53
39
247
71
29
250
111
18
251
135
6
253
120
2
252
119
2
253
117
2
253
107
1
252
89
3
253
82
2
253
85
3
253
94
5
253
91
3
252
82
6
253
83
5
252
95
5
252
98
5
252
85
10
251
68
16
251
65
16
251
58
15
197
54
12
25
14
9
21
12
6
11
9
4
18
16
6
33
23
8
106
66
6
84
37
6
37
13
5
49
12
5
51
16
7
18
19
9
23
11
6
45
22
8
74
21
26
81
15
22
56
12
12
8
10
12
7
10
11
14
12
12
11
11
13
15
11
11
32
15
12
196
128
7
253
187
2
252
196
1
252
194
2
253
201
2
253
203
2
252
203
2
252
193
2
252
179
2
251
164
4
252
157
3
252
152
3
248
157
9
246
52
51
250
155
163
251
235
235
230
228
190
220
218
20
202
201
22
178
178
24
226
214
29
243
203
80
250
109
91
248
66
39
251
113
13
252
133
5
252
122
3
252
113
2
252
101
3
252
84
4
253
90
3
253
89
3
254
93
4
252
94
4
252
83
5
252
95
3
253
90
5
252
81
8
251
68
15
251
57
18
251
62
16
251
55
16
123
24
19
20
12
5
16
8
4
11
9
5
16
11
6
33
18
7
67
46
7
45
22
8
26
9
4
36
10
3
22
17
9
14
14
8
25
14
7
81
19
23
64
14
19
7
10
12
6
8
10
19
13
12
18
15
9
9
9
9
17
12
12
80
54
12
252
178
3
252
191
2
251
194
3
252
202
3
253
213
3
251
222
6
252
208
3
251
196
2
252
170
2
251
175
4
252
177
4
251
156
5
244
126
30
246
59
60
248
180
176
250
238
234
216
215
128
216
216
20
178
173
23
159
154
28
226
223
27
235
228
53
253
249
244
251
232
233
249
181
181
246
90
46
250
106
13
250
110
13
251
102
5
252
106
4
252
89
3
252
85
6
251
89
5
252
101
5
252
100
6
252
80
8
253
86
7
252
81
7
252
74
12
251
58
20
251
59
21
251
50
16
243
35
28
63
10
11
19
11
5
15
8
5
11
8
3
20
15
6
23
17
7
36
30
9
24
13
6
26
9
5
37
11
5
18
20
8
49
20
13
101
20
28
38
7
10
6
8
8
11
11
12
40
18
13
12
10
11
12
12
11
10
12
13
179
127
8
253
192
2
253
188
2
251
198
4
252
212
3
251
207
4
249
169
10
251
150
11
246
149
11
249
192
10
251
208
5
251
190
3
252
161
5
249
119
13
250
46
21
248
35
25
249
59
45
233
86
55
217
110
25
222
134
24
210
147
20
197
146
19
234
165
54
249
185
179
249
184
180
246
151
142
248
64
52
246
62
20
249
104
16
252
109
7
251
117
5
252
116
5
252
111
4
252
103
6
251
98
5
252
95
6
251
92
6
252
81
6
252
72
8
252
72
9
252
69
13
251
54
15
252
54
14
253
38
22
227
28
31
52
8
10
12
8
5
12
6
2
11
9
6
21
16
6
17
16
5
35
26
10
17
8
4
30
10
6
13
12
6
30
17
11
106
8
14
8
10
12
7
10
12
33
18
12
25
14
14
13
13
13
9
10
11
43
28
13
247
181
4
253
194
2
250
189
2
250
181
4
246
100
16
238
58
46
205
84
33
213
128
23
237
114
46
246
58
55
244
78
47
242
148
44
249
199
15
250
169
6
249
138
8
250
105
12
250
75
12
251
73
15
251
54
19
249
48
22
249
58
27
248
54
31
247
48
30
249
55
28
247
57
24
247
55
17
250
74
16
251
107
8
252
118
4
251
107
6
253
104
4
252
110
4
252
108
5
252
105
6
252
101
6
252
92
5
252
80
7
252
87
6
252
84
6
252
72
6
252
65
9
252
62
10
252
54
15
251
50
15
251
28
19
229
18
23
56
6
8
9
6
3
10
6
4
18
15
6
18
18
7
20
20
7
15
9
4
19
8
4
16
9
4
13
13
7
40
7
10
5
9
12
14
12
14
71
24
18
22
21
19
12
13
15
8
10
11
139
94
11
252
193
3
252
198
2
249
158
5
246
60
46
243
178
186
205
201
112
195
194
13
210
206
35
228
222
29
222
202
32
243
130
112
247
89
103
240
69
62
243
169
26
251
183
5
251
136
5
252
121
5
248
116
12
249
115
15
250
113
11
249
115
7
249
119
10
249
126
11
251
128
9
251
117
7
251
123
4
251
108
4
251
109
4
252
108
4
252
95
4
251
97
4
251
100
5
250
101
8
251
107
9
251
101
10
251
99
7
251
91
7
250
81
8
251
96
7
252
77
8
252
68
7
251
64
11
252
54
11
252
53
10
253
42
17
251
24
26
224
15
25
31
6
6
8
4
4
12
7
5
24
21
8
17
18
7
11
10
5
17
13
5
106
74
7
25
24
9
8
10
12
8
13
15
50
18
21
47
22
27
22
22
21
12
13
15
21
17
11
230
164
4
251
192
3
244
157
9
241
50
44
248
209
214
251
243
241
200
196
56
215
211
20
77
71
26
204
199
28
208
205
17
232
224
137
250
244
242
248
218
222
242
122
127
236
99
33
249
168
6
251
142
3
252
123
3
252
109
4
252
123
6
250
128
5
252
126
4
252
131
3
252
128
3
252
122
3
252
113
2
253
101
3
252
101
2
251
97
5
251
116
7
250
95
10
251
69
15
250
68
23
251
70
22
249
81
25
249
92
19
251
94
10
250
92
10
251
92
10
251
90
9
252
68
5
253
55
10
252
52
13
251
55
11
252
50
14
252
32
19
251
17
24
233
16
25
47
10
11
7
6
4
20
11
5
19
18
6
12
10
5
12
9
7
88
62
5
82
76
5
4
9
15
19
19
23
69
26
26
37
25
24
28
26
21
14
15
16
64
48
10
251
192
4
249
201
5
242
133
18
242
73
46
243
116
121
246
186
187
208
198
81
207
201
18
194
196
14
208
206
17
198
194
16
239
232
182
250
245
243
249
241
239
248
240
237
241
156
161
240
64
35
251
158
10
252
153
4
252
131
2
252
128
3
252
109
2
252
100
2
253
94
3
252
93
4
253
94
3
252
99
4
253
106
2
251
101
4
251
114
7
248
59
17
248
27
35
247
44
61
249
41
54
250
31
39
251
36
46
250
31
37
251
40
27
251
68
16
251
89
12
252
94
12
250
89
13
252
54
11
253
55
8
251
51
10
252
50
11
252
38
14
251
28
22
248
16
22
179
10
16
6
3
3
7
4
3
20
16
6
19
17
7
11
8
5
56
43
7
77
60
7
10
16
20
27
22
25
70
33
27
40
36
23
34
33
22
12
14
15
80
59
11
251
191
3
252
196
2
251
201
3
250
203
4
249
154
14
249
99
38
242
48
50
211
73
25
184
91
16
201
97
25
231
106
61
240
113
117
246
89
98
247
62
77
248
66
66
248
79
45
248
100
40
248
105
30
251
156
5
252
124
2
252
111
3
253
112
2
253
106
2
253
92
2
253
87
2
253
94
2
252
108
3
252
103
3
251
126
4
247
65
15
244
51
63
246
172
180
232
215
153
207
194
50
208
171
33
215
128
30
231
78
44
244
42
53
250
34
42
247
41
27
250
90
19
251
118
14
251
73
12
253
58
8
253
47
13
252
48
15
251
45
14
252
33
19
249
23
25
247
16
25
98
12
16
7
6
5
18
18
7
17
18
7
22
13
7
26
21
8
44
45
7
21
17
20
55
24
27
56
49
27
42
39
17
31
32
20
9
12
13
132
94
12
251
194
3
251
208
2
252
210
4
251
202
3
251
201
4
251
187
5
248
179
12
248
136
25
250
112
19
250
126
28
248
139
21
248
157
14
248
168
11
248
181
11
249
191
9
251
183
5
251
181
6
252
159
4
251
134
3
252
119
2
252
110
3
252
99
3
252
96
2
252
97
2
253
102
3
251
110
4
252
109
3
251
96
6
250
109
7
245
28
33
248
189
197
250
243
242
212
208
53
209
209
12
210
207
19
208
205
21
216
214
19
212
205
47
245
207
209
247
162
171
241
74
76
249
96
25
251
100
8
252
62
6
252
50
10
251
46
13
252
45
11
252
38
14
252
31
20
249
16
22
240
12
24
52
6
8
9
9
4
21
22
8
16
12
8
19
14
7
29
33
9
36
24
32
82
41
32
48
51
16
36
35
22
14
18
19
9
10
13
185
141
7
251
202
4
253
210
3
252
219
4
251
211
4
252
201
2
253
193
4
252
198
3
252
202
2
253
197
2
252
196
2
251
196
6
249
188
8
250
179
5
250
177
4
249
181
8
251
177
8
250
150
5
251
139
3
252
137
3
252
127
4
251
117
4
252
111
3
250
113
8
252
118
6
251
112
7
252
104
5
252
98
2
253
90
3
247
75
9
238
30
39
247
185
184
250
243
240
196
196
37
196
200
11
181
178
19
147
145
27
207
208
20
206
207
19
229
224
170
251
244
243
248
237
236
241
106
111
250
54
16
251
84
6
251
65
11
252
42
14
253
40
14
253
37
14
251
37
16
248
23
17
247
11
20
183
12
21
6
5
4
19
19
9
15
15
8
11
9
6
19
21
9
52
38
57
97
50
22
38
40
18
26
26
24
16
16
17
11
12
15
229
176
5
252
209
3
251
213
4
251
211
4
252
204
2
252
199
3
252
207
2
252
211
4
252
205
3
252
190
1
253
194
1
251
187
3
251
156
3
251
152
2
251
161
4
250
168
6
252
126
3
252
124
4
252
123
4
251
118
5
251
100
6
251
66
10
250
69
13
250
78
14
250
94
11
251
106
7
252
102
5
252
98
3
252
93
3
252
108
4
248
77
17
249
49
30
246
63
64
201
97
33
188
160
14
197
191
17
201
202
17
202
202
17
204
203
20
226
203
143
246
188
192
242
132
121
240
57
46
249
90
10
250
80
13
251
74
15
252
41
14
253
38
15
251
33
19
250
38
14
250
28
24
245
13
22
222
11
22
7
5
4
12
12
5
20
16
8
8
7
3
7
7
6
66
40
43
63
51
14
26
26
20
19
20
19
13
13
12
12
12
12
238
193
5
252
211
3
253
205
3
251
200
2
253
203
3
252
202
3
252
203
3
252
211
3
252
205
4
252
187
2
252
192
2
250
175
3
251
148
3
251
142
3
251
148
4
250
148
5
250
119
5
251
102
4
250
101
4
248
93
9
243
45
22
231
56
31
211
71
26
207
62
32
236
48
43
249
49
40
246
68
22
250
108
8
252
115
3
252
112
3
252
106
3
251
120
8
247
118
23
246
76
20
243
43
20
240
41
31
234
57
31
236
63
34
234
44
27
246
28
30
249
32
23
249
55
20
250
90
16
251
108
13
251
98
15
252
87
12
251
55
11
252
36
14
252
32
17
251
37
18
250
23
21
248
13
30
222
11
25
7
5
4
10
11
6
18
15
7
7
5
4
4
4
4
82
33
44
54
49
17
32
26
25
20
21
17
11
11
12
13
13
14
242
192
4
253
204
2
253
201
3
252
201
2
251
205
4
252
204
2
252
191
2
251
201
2
252
198
3
251
181
3
251
175
3
251
169
3
251
144
3
252
135
3
252
138
3
252
131
3
251
113
4
250
117
6
246
71
12
235
119
118
221
195
137
181
181
13
186
186
13
196
199
16
211
197
22
231
168
108
243
118
128
238
55
53
247
72
17
252
118
3
252
118
2
253
122
2
251
127
4
251
131
7
249
127
10
248
132
15
250
116
10
249
120
12
249
102
12
250
117
13
250
118
16
250
122
17
251
92
9
251
87
10
252
77
10
251
73
12
252
58
7
252
42
13
252
31
16
250
31
14
249
22
22
249
18
35
193
10
20
7
7
5
13
14
6
13
11
5
7
5
4
2
2
3
86
23
13
50
51
23
35
29
22
18
19
20
10
10
14
22
18
12
249
197
4
252
200
2
252
202
2
253
199
3
253
190
2
253
201
2
253
197
2
252
186
2
252
179
2
252
175
2
252
173
2
252
178
3
251
158
3
250
147
4
250
145
3
250
135
4
249
142
8
244
65
15
244
93
106
249
238
238
204
202
60
195
196
19
148
150
18
181
185
22
209
206
17
192
193
41
246
238
235
249
240
238
240
162
166
242
67
22
250
136
4
251
142
4
252
124
3
253
123
3
252
125
3
250
121
6
251
115
8
251
120
9
251
109
9
250
97
12
250
93
14
251
87
12
253
79
8
252
80
8
252
67
11
252
65
10
253
55
8
252
44
9
251
34
15
250
35
16
248
25
23
247
19
30
174
13
25
6
6
5
12
13
6
15
14
8
17
6
4
9
6
3
82
33
12
55
52
26
35
27
18
19
22
19
10
13
15
78
65
12
252
201
3
253
198
1
251
199
4
249
168
8
248
162
12
247
172
7
251
189
3
252
196
2
252
196
2
252
193
2
252
197
2
253
185
3
252
169
2
249
173
5
249
168
5
249
144
6
239
109
12
244
84
91
246
231
229
249
239
236
181
184
30
194
195
16
171
169
30
179
178
19
196
197
17
173
176
21
244
236
231
249
240
238
248
235
233
236
132
134
246
59
15
249
136
5
251
138
3
252
124
3
253
115
3
252
119
3
253
111
3
251
99
7
251
95
5
251
91
7
251
86
6
251
89
6
251
84
9
251
71
9
252
66
8
251
58
11
252
48
9
252
30
16
252
28
19
251
28
19
248
23
19
247
16
29
136
12
21
4
4
4
11
11
7
13
11
7
22
7
5
15
5
4
47
46
21
57
48
30
45
37
16
18
23
19
13
15
17
167
137
11
252
199
3
244
149
9
238
80
58
243
66
78
237
62
51
233
57
50
229
48
37
225
89
17
235
143
10
251
190
4
251
184
2
251
181
3
250
175
4
251
171
3
250
174
4
250
172
4
244
142
6
230
46
34
231
74
72
238
127
123
184
116
44
184
153
18
185
166
16
189
176
18
185
162
17
198
152
47
243
174
161
240
141
134
240
167
163
241
86
82
238
24
18
248
101
13
251
129
5
251
130
4
252
121
2
252
113
3
251
103
4
252
92
3
251
84
5
251
82
7
251
78
8
251
77
10
252
72
11
252
71
10
251
65
11
253
59
12
252
52
8
251
29
18
252
22
21
250
29
19
249
26
18
247
18
27
170
9
17
8
5
6
9
9
6
13
12
7
20
7
5
10
4
4
47
50
22
56
41
25
40
41
14
24
31
21
15
15
16
220
148
8
245
150
5
240
49
62
241
211
217
209
203
83
204
201
20
220
214
32
223
212
40
213
146
35
220
61
36
235
47
48
242
89
22
248
154
10
251
172
3
249
164
5
250
159
3
250
166
3
250
170
3
250
154
5
243
123
7
240
85
12
245
63
19
239
61
22
239
52
27
235
47
25
225
44
26
245
46
27
246
90
26
247
81
25
247
81
14
249
103
13
249
118
10
250
124
7
251
129
5
251
138
5
251
132
6
250
124
6
251
114
6
252
110
5
252
97
5
251
84
7
250
88
10
250
90
11
251
87
16
250
79
15
252
66
7
252
59
6
252
50
7
250
28
18
250
20
20
249
30
17
247
21
17
248
16
31
242
12
25
69
10
16
8
8
6
12
12
8
24
8
5
12
4
3
55
54
19
60
43
26
32
36
16
23
31
19
25
18
16
246
157
5
237
86
12
241
142
152
245
235
234
173
180
41
199
198
22
167
161
36
157
152
36
212
208
26
209
205
30
226
192
124
238
123
130
241
48
31
248
133
13
249
181
5
252
172
2
250
158
3
251
149
2
249
142
4
250
148
5
250
147
4
249
163
4
250
166
4
250
166
5
249
156
5
250
146
6
251
145
5
251
151
3
251
160
5
250
144
5
250
118
8
250
113
7
251
112
8
251
109
9
251
119
7
250
138
7
251
137
7
251
122
8
252
108
5
252
101
4
252
94
4
251
105
8
252
97
8
251
96
7
251
82
11
253
70
7
253
72
4
253
51
8
250
28
17
247
17
19
248
24
17
247
21
18
248
14
27
243
12
24
139
13
26
7
7
5
15
15
8
34
12
8
22
4
4
56
54
21
57
43
22
24
31
17
15
23
19
78
50
15
247
156
3
222
49
32
241
213
220
243
235
235
177
180
54
201
200
21
147
143
29
80
75
31
205
202
20
208
203
32
231
222
124
246
237
236
241
204
203
239
81
72
247
141
12
250
181
4
250
165
4
251
147
3
251
135
4
252
138
3
252
139
2
251
136
3
252
143
2
252
140
2
252
141
3
251
148
3
252
152
2
253
149
2
252
143
3
252
132
3
253
102
3
253
96
2
252
102
4
251
96
7
251
97
7
250
114
8
251
119
6
251
115
5
252
106
2
252
99
3
252
100
3
251
101
4
251
96
8
251
90
9
251
86
7
252
77
5
252
70
3
253
51
6
248
27
16
247
22
17
247
21
17
242
18
15
239
8
18
244
10
24
181
12
21
9
7
6
13
15
6
38
11
7
35
7
4
42
41
22
59
43
18
17
24
17
8
12
14
156
95
11
247
169
3
222
45
27
240
98
92
240
150
151
194
162
103
186
178
18
191
188
15
190
189
20
185
187
15
206
202
26
235
227
181
245
236
235
241
220
219
242
216
216
237
74
57
244
157
8
249
168
4
249
157
6
250
143
4
252
140
2
250
142
3
251
139
3
251
140
4
251
127
3
252
123
3
251
128
4
252
133
3
251
130
4
251
121
4
252
109
4
251
99
5
251
90
7
247
77
9
247
55
14
247
54
14
248
64
12
252
64
9
251
83
7
250
113
7
251
117
5
251
104
5
251
98
3
252
90
6
251
83
8
252
74
6
252
73
5
252
65
4
252
51
6
249
29
17
249
24
17
245
19
17
244
19
16
237
7
17
245
13
29
207
9
15
14
7
6
17
18
7
34
9
6
38
10
5
49
45
24
57
40
17
19
28
17
7
10
12
196
119
10
246
169
5
247
173
5
245
151
10
245
126
11
244
88
16
237
41
16
231
45
17
224
58
16
214
64
16
235
63
30
244
67
44
242
84
41
247
75
16
246
88
28
247
88
14
242
118
10
249
146
4
250
162
3
250
159
3
251
155
3
251
144
3
251
143
4
251
140
4
250
136
4
251
134
4
251
117
5
252
104
4
251
99
5
249
97
9
246
61
15
243
37
28
230
39
34
213
71
25
217
91
27
226
72
31
244
45
47
245
45
40
251
54
19
251
77
11
252
91
5
251
91
5
251
82
8
251
82
8
250
87
8
252
65
7
252
67
6
251
51
7
249
46
8
248
35
13
246
23
18
245
18
19
243
18
18
240
10
19
241
11
23
215
10
18
31
10
9
15
16
6
31
8
5
34
8
5
55
49
22
45
34
17
16
22
16
7
10
15
221
139
6
249
169
3
247
168
3
247
168
4
247
170
5
248
170
3
248
173
3
249
170
4
246
178
6
247
179
6
246
178
6
246
173
5
248
183
5
248
180
5
248
175
5
248
164
4
250
161
3
251
154
3
250
158
3
250
158
4
250
155
4
250
151
4
251
146
3
252
131
3
253
125
2
252
101
3
253
83
2
252
83
3
249
103
10
242
34
30
238
105
119
199
136
91
171
166
13
185
188
14
196
196
17
193
189
17
214
198
116
243
162
172
246
65
78
248
46
29
251
63
13
250
90
12
251
82
9
251
84
8
252
73
8
252
67
5
251
64
5
252
53
5
251
44
10
250
35
12
244
24
15
244
22
17
247
19
26
245
14
29
242
14
22
228
12
22
47
12
13
26
27
8
33
6
5
36
6
5
42
38
18
28
25
18
9
14
14
31
21
13
241
154
5
247
162
2
248
160
3
247
159
2
248
160
2
247
164
3
246
166
3
247
168
2
248
170
3
248
168
2
248
167
3
249
166
3
249
161
3
249
155
2
248
155
2
249
160
3
250
158
3
250
157
3
250
164
4
249
160
5
250
158
4
249
156
5
250
155
4
251
138
4
252
109
4
253
90
2
253
86
3
250
106
5
238
87
12
232
111
121
246
235
236
186
185
69
192
192
10
179
175
30
156
156
23
197
196
20
193
194
62
247
238
236
242
206
209
243
75
83
247
58
34
250
75
12
251
73
10
251
70
9
253
58
8
252
65
6
252
58
4
252
53
6
249
45
10
248
36
12
244
24
17
243
22
15
245
19
23
243
12
23
243
15
23
237
15
27
47
14
13
31
30
11
56
22
11
33
5
3
21
21
13
17
19
15
8
11
14
71
44
12
244
157
4
246
157
2
245
157
2
247
158
2
248
162
2
247
166
3
248
169
3
248
171
3
246
167
3
248
166
3
247
163
3
249
157
3
249
157
3
250
157
2
249
149
2
251
143
2
251
147
2
250
160
3
248
169
4
248
162
4
250
142
4
250
139
4
251
128
3
250
109
4
252
111
4
253
99
2
251
107
2
251
117
3
243
60
19
244
163
173
246
237
237
190
187
92
193
193
11
194
194
14
191
191
19
190
192
20
185
186
51
248
240
237
248
237
236
241
206
210
245
63
76
250
51
30
250
74
11
251
71
9
251
72
6
252
66
6
252
62
5
252
51
5
248
40
12
246
33
14
244
20
18
244
16
18
246
25
28
244
13
28
241
14
21
240
17
29
65
16
19
29
23
10
105
52
16
31
5
4
16
17
13
16
18
13
7
12
15
87
55
10
244
156
3
246
161
3
248
166
3
246
160
3
246
159
3
246
160
3
249
163
4
247
162
4
248
163
4
248
163
4
250
160
3
249
159
2
249
156
1
248
150
1
250
143
2
251
144
2
251
151
2
251
158
2
251
157
2
250
139
3
249
131
5
250
127
4
249
109
5
249
87
5
251
73
5
251
93
3
252
115
2
253
117
2
247
97
10
239
34
33
241
107
115
226
122
108
172
120
19
175
151
15
174
150
15
188
128
26
207
104
67
245
110
123
245
94
86
247
93
62
246
91
33
246
59
18
249
59
12
252
74
6
251
70
5
252
64
5
252
53
6
250
53
5
246
38
9
243
31
14
241
17
19
240
13
16
246
17
23
242
14
24
242
13
22
225
15
28
39
13
13
34
21
12
63
26
11
20
4
3
12
17
15
13
16
14
8
12
16
89
54
9
242
159
4
244
156
3
246
161
3
248
166
4
244
162
3
245
161
3
248
163
4
248
160
3
248
160
2
247
159
2
248
157
2
249
156
2
250
147
2
250
149
2
251
148
3
251
145
3
251
146
2
250
136
2
250
115
4
248
114
7
247
85
10
244
73
11
241
49
18
237
34
19
244
42
14
251
62
5
252
96
3
253
110
2
251
109
2
248
108
11
244
45
19
247
49
17
248
73
16
248
76
16
245
71
16
250
64
15
249
62
15
249
84
10
250
103
5
252
97
7
251
74
11
251
52
12
252
60
11
252
65
6
251
57
6
252
58
3
253
51
5
248
49
6
245
39
9
241
27
15
240
15
16
240
11
18
245
17
25
239
11
19
244
16
24
205
15
29
14
10
8
32
18
10
39
16
5
12
3
2
12
18
19
10
12
12
9
12
16
78
49
12
242
156
4
243
158
3
243
158
4
246
164
2
246
167
3
247
161
2
249
153
2
249
153
2
249
157
3
249
159
2
251
151
2
251
144
2
250
149
3
251
150
2
250
142
2
251
143
1
250
122
3
247
93
5
247
86
7
247
59
10
247
53
11
246
45
11
247
45
10
244
26
17
245
25
21
246
27
19
250
50
10
252
91
3
253
106
2
252
104
3
250
98
5
251
86
6
251
68
8
251
68
7
252
61
6
252
75
5
252
88
5
252
85
4
251
82
5
251
77
8
250
69
10
251
68
9
251
71
6
251
63
6
250
57
5
253
54
4
252
51
4
247
42
8
243
32
12
243
23
17
243
13
22
242
13
20
244
17
22
240
12
18
243
15
24
123
12
23
8
8
5
26
17
6
29
8
5
13
3
2
16
17
15
12
16
17
11
13
14
12
13
15
202
126
7
245
157
2
245
159
3
246
161
4
249
165
3
248
155
3
247
151
2
246
148
3
248
143
3
249
138
2
249
150
3
250
150
2
249
151
2
249
139
2
249
136
1
247
109
4
240
61
10
245
61
12
247
68
5
247
61
8
246
55
9
250
39
16
246
43
12
247
35
12
248
25
18
244
26
19
243
20
18
249
65
8
251
89
3
251
91
3
251
104
3
252
107
3
252
95
3
252
93
4
251
77
3
252
77
4
251
77
5
252
75
5
251
76
7
251
66
8
250
74
7
251
64
5
251
64
7
251
65
6
251
58
6
252
61
4
251
52
7
246
37
8
244
30
14
241
16
16
240
12
20
241
12
21
245
17
27
239
14
21
243
19
40
65
12
19
5
6
5
21
14
7
36
11
10
10
4
3
31
17
18
32
37
19
13
17
14
13
18
18
169
106
9
245
160
3
247
154
3
246
158
2
247
158
3
248
157
4
246
144
4
247
142
2
248
147
1
249
151
2
250
154
3
248
151
2
248
141
2
249
135
1
249
121
3
247
70
10
246
39
19
248
57
9
245
77
4
246
70
6
246
55
6
246
47
8
249
41
11
248
45
8
246
23
17
245
17
16
248
20
17
246
22
16
250
113
4
252
101
3
251
103
3
251
109
2
252
92
3
253
89
2
252
86
3
252
88
3
252
81
3
252
80
5
251
80
6
252
51
8
251
60
7
252
70
5
251
71
5
252
67
4
253
65
4
251
64
4
249
41
10
246
37
11
244
23
16
239
10
17
240
11
18
242
13
22
240
15
24
237
10
21
222
25
56
18
12
10
5
5
4
28
19
10
14
5
5
9
4
2
41
14
15
28
28
11
17
21
12
15
21
21
164
102
8
244
155
2
247
162
3
247
164
4
243
159
4
246
154
5
247
144
3
246
139
3
247
150
3
248
153
2
248
147
3
248
146
2
249
142
2
249
129
3
248
85
7
247
63
9
248
67
6
191
63
7
174
58
12
239
64
10
243
65
5
245
48
8
239
46
9
248
48
9
245
36
14
240
14
15
241
11
19
239
9
14
244
98
8
251
106
3
252
102
3
253
106
2
252
91
2
252
84
2
251
84
4
252
83
4
252
80
4
251
75
6
252
75
5
251
76
6
251
70
5
252
71
3
252
74
3
252
82
3
252
70
4
252
58
5
248
42
8
242
32
10
242
14
15
238
9
15
238
9
15
243
13
20
236
10
21
234
12
23
144
20
39
9
10
6
2
2
2
24
15
10
9
4
4
4
3
2
43
13
15
12
10
9
13
10
12
6
8
10
185
115
5
243
151
3
246
157
2
246
165
2
246
165
3
246
150
3
247
148
3
247
146
3
248
150
2
247
148
2
247
147
2
248
145
2
248
131
2
249
105
5
247
54
17
244
61
7
244
72
3
107
38
13
147
46
15
239
70
4
240
69
5
158
43
9
97
23
12
248
47
7
245
41
10
239
16
16
229
7
17
231
8
17
241
67
9
251
93
3
252
101
2
252
99
3
252
97
3
252
94
3
251
78
5
251
83
5
251
74
6
252
74
4
252
79
4
250
94
4
252
78
4
252
78
3
250
76
4
251
83
4
252
72
5
250
46
9
245
45
8
241
25
12
238
9
18
239
8
17
234
9
18
237
12
22
233
9
20
237
16
35
64
10
18
7
8
6
4
4
4
21
13
8
7
4
4
3
4
4
47
14
18
12
9
11
58
8
11
5
6
8
203
123
5
242
152
2
245
152
3
245
155
3
246
158
4
246
153
3
246
152
2
248
145
3
244
145
1
245
146
2
247
147
2
247
135
2
249
124
3
248
79
8
245
64
5
243
69
3
235
73
6
36
19
14
195
55
9
241
66
3
239
73
3
99
31
7
48
17
13
245
45
9
243
48
9
243
27
16
229
8
18
231
9
18
239
45
13
251
108
3
251
103
2
251
104
4
251
97
3
252
94
2
251
101
5
250
98
4
250
92
4
251
75
3
252
85
3
251
84
4
251
79
4
251
79
4
252
79
3
252
79
3
251
57
5
247
42
12
242
43
9
235
14
13
234
6
16
238
9
16
234
7
17
235
10
20
231
10
19
199
17
38
11
6
6
5
5
4
7
7
7
16
12
8
3
3
3
5
5
5
44
11
14
10
12
14
82
8
11
14
10
11
227
138
5
241
153
2
241
150
3
245
147
2
245
150
2
246
155
3
247
148
3
245
137
2
243
141
2
242
143
2
247
137
2
248
132
2
248
99
6
246
60
9
240
67
2
240
70
4
182
64
6
38
20
18
231
69
6
240
66
4
240
74
3
84
30
8
89
25
16
245
47
6
247
56
5
243
35
13
231
10
19
233
9
19
238
34
15
252
113
3
251
104
2
251
102
3
252
81
3
252
87
3
251
102
4
252
104
3
250
94
3
252
76
2
252
80
3
251
79
3
250
92
5
251
75
5
251
79
3
252
66
3
250
49
9
247
42
11
242
30
12
231
6
14
236
8
17
238
9
18
234
8
17
231
9
17
238
10
21
124
10
25
6
6
6
3
3
3
14
14
10
9
7
5
4
4
5
32
22
11
36
11
13
11
11
15
99
8
12
43
24
10
239
151
3
241
153
2
241
149
2
241
145
2
244
152
1
241
150
2
243
146
3
244
143
3
240
138
2
241
137
1
245
124
2
246
133
3
245
77
3
240
67
1
242
65
1
238
74
4
111
42
6
80
31
15
234
69
4
239
66
4
235
72
2
50
22
8
124
32
10
245
51
6
247
59
2
245
39
11
231
10
17
235
7
15
241
34
14
249
113
5
251
114
2
251
104
5
251
90
4
253
81
2
252
85
2
252
83
3
252
73
2
253
76
2
251
78
2
249
99
5
248
99
6
250
72
7
252
70
5
251
51
8
248
42
8
240
37
12
238
15
14
232
7
17
237
10
18
231
8
18
227
8
18
236
10
20
218
10
21
32
4
6
6
6
6
9
9
7
19
19
12
11
5
4
7
5
4
10
9
7
24
9
10
14
10
13
56
5
5
57
35
11
238
148
3
238
150
2
240
146
1
240
144
2
242
153
2
240
148
2
240
147
2
241
144
2
240
140
2
243
128
1
245
118
3
245
99
5
241
68
3
241
68
1
241
67
2
234
77
3
45
22
11
139
49
13
238
68
3
236
64
3
221
72
3
22
15
13
162
42
9
244
54
3
245
59
3
244
45
9
229
7
14
232
7
15
240
22
15
249
123
6
253
126
3
250
88
3
251
91
4
252
79
4
253
75
3
252
81
3
253
74
2
252
74
3
250
77
4
249
87
6
249
73
6
249
76
6
251
57
7
251
48
6
245
39
9
240
30
10
234
7
15
234
8
17
234
9
18
229
7
18
232
11
20
235
10
19
111
6
10
4
3
3
11
11
9
27
26
13
25
21
8
22
20
8
15
13
8
9
8
8
21
10
14
24
10
11
62
7
8
67
42
11
233
142
2
236
143
2
237
144
2
236
149
3
241
155
3
239
153
2
242
150
2
243
148
2
242
142
2
244
128
2
245
130
7
241
79
5
240
70
3
241
69
2
240
67
2
186
61
4
28
20
18
215
66
5
239
64
3
231
58
2
191
64
3
18
14
12
212
53
4
241
61
3
244
62
2
244
53
6
229
8
13
228
5
11
236
8
15
248
111
7
250
115
4
250
98
4
251
89
3
252
83
3
253
72
3
253
85
3
252
78
3
251
67
4
250
73
5
249
77
5
250
70
5
249
66
6
251
59
6
251
45
6
247
41
10
241
20
14
231
7
16
237
10
20
233
8
17
229
7
19
240
14
25
234
13
23
69
14
11
11
11
6
19
18
10
17
16
10
14
15
6
32
22
11
16
15
9
19
14
11
15
9
12
34
13
15
47
8
10
65
43
12
231
142
3
232
143
2
238
142
1
238
148
2
240
149
3
241
143
2
241
144
2
242
149
2
244
134
2
248
137
3
243
101
5
239
69
2
239
69
2
239
64
1
240
72
2
135
48
8
125
46
14
234
70
2
236
62
2
233
58
4
156
59
6
61
28
13
235
63
3
241
70
4
242
66
3
241
50
7
231
6
13
228
5
13
235
8
14
244
71
11
251
107
4
251
99
4
249
92
5
251
93
3
251
79
3
252
80
3
251
65
3
251
57
4
251
60
6
250
66
8
250
72
5
250
51
7
249
42
9
248
39
8
246
37
10
234
9
14
232
8
16
236
9
17
227
8
18
231
10
20
239
13
24
188
16
23
30
30
8
11
13
5
22
23
9
18
17
7
25
20
9
36
23
14
14
15
6
21
13
9
13
9
10
34
13
14
25
9
13
25
16
10
229
140
2
236
147
1
240
150
2
238
151
2
241
153
2
241
145
2
241
142
2
244
143
2
246
135
5
247
138
4
241
86
6
239
74
2
242
78
2
241
65
1
241
72
2
217
70
2
230
68
2
235
69
1
239
61
2
236
60
3
111
43
9
175
55
6
234
65
2
239
69
3
240
73
1
241
57
6
226
7
12
226
3
10
232
6
12
239
28
13
251
80
6
251
89
4
250
93
4
251
83
4
250
85
4
251
63
6
249
73
7
251
68
4
252
55
9
250
60
7
250
56
6
249
45
8
249
40
7
248
38
9
241
23
12
234
8
17
235
10
17
230
8
18
234
9
21
234
11
21
232
10
23
82
17
16
30
27
7
12
12
7
28
26
7
27
29
10
38
24
12
34
34
8
31
28
5
10
6
4
18
8
9
43
13
16
22
8
12
28
18
9
233
142
3
236
142
2
238
146
3
239
150
2
240
149
2
242
145
2
239
141
2
246
147
3
247
142
4
243
119
4
239
92
8
241
84
2
244
79
1
242
75
1
240
73
1
237
71
1
236
69
1
238
65
2
241
63
2
238
64
2
190
70
3
233
63
3
237
68
1
240
69
3
239
71
3
237
61
5
229
9
14
223
3
10
228
6
13
235
10
14
245
62
8
251
98
5
251
86
4
251
84
3
250
79
4
249
70
8
249
73
7
250
64
6
250
62
6
250
58
7
249
44
8
250
38
10
248
39
10
248
38
12
241
15
17
238
12
19
233
10
18
230
9
19
234
10
20
229
7
17
180
11
24
21
19
8
15
13
5
21
22
9
39
37
7
47
24
13
40
19
10
82
72
5
54
44
6
8
4
3
28
10
13
49
11
14
26
10
15
131
43
25
235
145
2
239
158
3
239
155
2
242
149
1
243
143
2
240
133
2
243
134
2
243
134
3
244
135
2
241
109
3
240
112
2
240
103
1
242
91
1
239
84
1
239
80
1
239
75
1
243
69
2
243
70
2
243
68
2
239
64
2
234
70
2
237
61
3
238
63
1
241
64
2
241
68
2
237
65
2
232
17
15
228
7
14
230
6
11
231
6
13
237
20
13
248
87
6
251
94
3
250
80
3
250
80
4
250
66
3
251
59
7
249
63
5
250
67
6
250
57
8
249
46
9
247
37
9
248
40
14
245
29
16
241
12
18
236
9
15
229
7
15
227
7
18
227
5
14
233
14
28
67
6
13
15
14
9
16
14
5
48
44
7
56
39
8
96
12
8
44
25
7
100
86
4
60
46
6
7
3
3
35
10
12
27
7
11
69
9
16
211
15
30
227
74
8
243
154
3
242
152
2
243
146
2
243
149
2
241
139
3
239
130
2
239
122
2
245
130
3
246
123
3
245
110
2
244
114
2
245
98
2
242
102
2
242
90
1
238
78
1
241
71
1
243
76
3
242
74
2
243
67
1
240
63
2
239
59
2
242
61
2
244
64
1
242
64
1
238
63
2
234
32
12
227
6
14
229
6
13
228
5
12
228
4
9
234
21
9
251
73
4
250
66
5
250
79
5
249
74
6
250
63
6
250
71
5
250
60
7
249
56
5
246
47
4
247
42
12
247
38
17
241
16
20
234
8
18
230
7
15
226
4
15
226
5
14
232
10
21
138
10
23
7
6
6
9
9
7
41
38
8
75
65
4
86
44
6
103
27
6
47
37
6
114
91
5
39
26
3
19
6
4
28
8
10
11
7
9
7
8
12
169
14
32
205
18
27
233
141
43
240
158
2
241
147
2
240
138
1
243
143
2
238
137
2
241
126
2
241
111
2
244
98
3
247
112
2
246
115
2
241
113
2
245
108
1
244
102
1
245
92
1
244
86
1
241
82
2
236
73
2
242
73
2
244
73
2
245
68
2
244
66
2
243
71
1
246
70
1
244
65
2
238
57
5
227
9
12
226
4
10
226
5
10
225
4
10
227
10
12
236
24
8
250
57
4
251
70
5
251
79
4
251
75
5
252
59
8
249
55
5
248
54
4
248
49
7
246
41
11
242
26
15
234
8
18
231
6
16
225
4
15
225
6
14
231
8
18
192
13
29
12
4
6
5
5
4
17
16
10
64
60
8
77
64
4
106
63
4
110
39
8
51
49
7
112
87
3
8
4
2
36
12
7
32
10
11
11
6
10
5
7
11
86
19
34
226
163
177
237
211
178
239
159
5
242
146
2
240
147
2
240
149
2
240
136
2
239
116
2
242
99
3
245
85
2
245
94
2
246
112
2
244
112
1
245
113
1
245
102
2
246
94
2
248
90
1
246
101
1
242
82
2
240
72
2
236
78
1
237
78
2
238
72
1
240
77
2
245
77
2
244
72
1
237
68
3
230
23
11
229
14
12
230
19
12
230
20
8
245
43
5
248
55
3
251
56
4
249
62
3
251
70
2
252
64
4
250
55
6
247
55
5
248
54
7
247
43
10
243
34
14
234
10
17
231
6
15
226
5
13
230
7
17
232
9
18
235
17
29
52
8
12
7
6
7
14
15
15
24
22
12
77
70
5
84
56
7
114
60
3
103
27
5
63
59
4
99
75
3
8
8
5
41
13
8
26
8
9
10
6
10
5
8
11
51
45
55
235
224
230
239
227
234
238
194
96
242
151
2
241
143
2
241
150
2
239
141
2
242
129
1
242
126
2
245
120
2
244
113
2
244
99
2
244
106
2
245
111
1
245
116
2
247
96
1
248
89
1
250
96
2
250
88
2
247
83
2
243
82
1
242
78
1
241
74
1
239
84
1
238
86
1
240
80
2
245
74
1
244
51
4
236
44
5
242
48
4
245
46
5
249
47
3
250
55
3
251
60
4
251
67
3
250
64
2
249
59
4
250
58
5
248
61
6
246
49
9
244
41
12
236
13
20
232
5
16
228
5
15
230
8
15
243
15
25
240
14
25
103
10
18
8
7
8
7
7
7
29
26
21
40
31
11
66
53
7
59
38
6
108
39
4
86
26
6
67
66
2
89
71
3
24
18
5
35
15
10
34
12
12
48
23
12
28
27
12
27
22
20
231
191
117
239
227
234
240
226
224
238
171
52
238
154
2
239
149
2
240
145
2
237
144
1
241
139
2
241
139
2
241
133
2
242
128
2
243
126
2
244
112
1
249
112
2
243
106
2
246
88
1
248
88
1
251
86
2
251
77
2
251
81
1
250
99
1
249
95
1
246
87
1
241
87
1
244
85
1
247
83
2
250
77
3
250
75
2
250
67
2
251
80
2
251
69
3
251
77
3
250
75
3
252
87
2
251
70
2
250
62
5
249
56
4
246
49
9
245
41
12
237
19
18
228
7
15
229
6
16
229
7
17
243
14
25
242
16
23
173
11
21
8
5
6
5
5
6
20
12
12
18
16
10
52
40
8
35
26
9
52
29
6
88
14
5
69
28
6
75
71
2
82
68
4
20
14
7
36
15
9
35
9
9
41
23
10
44
42
9
66
48
9
230
162
6
238
204
145
238
228
235
239
219
195
240
157
9
240
155
2
236
154
2
240
153
2
239
152
2
237
148
2
239
150
2
241
150
3
240
142
2
241
127
2
245
110
2
246
99
3
244
90
2
246
91
1
248
94
2
248
87
2
248
81
2
248
83
2
250
85
2
250
103
2
250
99
2
247
87
2
251
88
2
249
81
3
251
101
2
251
94
2
252
87
2
250
83
3
252
83
2
251
84
3
251
69
3
251
63
3
250
58
6
248
45
9
246
35
14
240
24
14
234
10
19
230
8
17
229
7
17
240
14
21
242
16
26
216
13
22
31
6
8
7
7
8
19
16
11
7
5
4
44
41
11
56
44
9
21
15
9
50
20
8
92
5
6
60
38
7
77
71
3
80
62
4
22
18
7
42
18
10
28
8
6
31
19
10
36
39
12
129
90
6
231
156
4
235
169
22
236
215
203
237
225
231
237
214
168
237
172
30
232
144
8
234
140
12
235
148
13
234
151
6
240
155
6
239
165
3
242
149
3
241
143
3
244
118
3
246
91
3
248
102
2
248
97
2
248
99
2
249
100
2
249
107
2
249
94
2
249
83
2
248
84
2
250
89
2
249
73
1
248
67
2
250
74
2
251
84
2
251
84
3
252
76
2
251
80
2
250
85
2
251
69
2
250
61
1
250
57
4
248
56
7
247
37
16
245
30
19
240
15
18
234
9
18
234
10
19
238
14
25
242
14
23
229
14
25
54
6
12
42
10
13
48
9
9
35
28
9
16
17
11
52
47
6
33
19
7
29
14
8
47
13
7
84
5
6
53
48
4
74
69
3
66
60
5
31
25
5
44
17
9
15
8
6
20
15
10
33
36
11
133
95
12
232
162
2
232
159
2
237
179
37
236
216
206
238
226
237
230
144
155
231
21
43
224
13
29
227
15
32
227
17
33
216
17
26
227
50
37
229
87
35
226
101
14
246
133
4
249
93
4
248
89
2
248
97
2
249
104
1
250
100
1
251
111
2
251
106
2
250
103
2
249
100
3
250
90
2
250
85
2
250
82
2
251
90
2
250
85
3
251
69
3
250
70
3
251
79
2
251
71
3
250
66
3
249
61
3
248
58
5
246
47
9
245
37
17
240
21
18
236
13
19
237
13
20
241
15
23
242
17
25
217
15
22
67
8
13
41
12
14
94
6
6
28
7
5
20
10
8
25
26
12
34
27
8
26
12
6
25
13
8
53
8
5
59
10
6
59
58
4
46
47
5
49
46
7
26
18
8
56
21
14
10
7
6
24
11
11
32
27
12
112
80
9
233
163
2
232
167
2
234
166
2
227
157
44
232
196
212
237
224
232
230
114
128
231
17
40
229
14
33
222
11
27
225
13
30
230
15
36
233
16
36
224
24
25
245
122
4
248
115
2
249
82
3
250
90
2
249
95
2
249
107
2
248
113
2
249
107
2
250
94
2
249
97
2
248
91
2
249
85
1
251
80
2
251
77
2
251
76
2
250
77
2
251
89
2
251
78
2
251
71
2
249
69
3
249
59
7
249
53
9
247
42
11
243
25
18
238
15
18
240
15
19
242
17
23
241
16
25
215
13
21
39
14
17
11
7
7
93
14
19
42
7
6
28
8
5
20
10
8
14
13
8
28
14
7
22
11
6
33
15
9
49
6
4
49
21
7
49
51
4
37
41
10
21
22
5
32
14
11
60
19
13
18
11
7
12
7
5
37
16
7
92
67
10
230
165
3
232
165
2
234
162
3
214
83
19
227
48
83
225
184
202
232
220
228
187
117
123
95
15
25
106
14
22
213
14
34
228
14
32
233
16
36
209
28
19
243
104
3
245
89
2
249
86
2
249
89
3
250
84
2
249
89
2
249
94
2
251
92
2
249
94
2
248
88
2
249
95
2
249
90
2
250
89
2
250
89
1
250
88
1
249
84
3
250
78
3
251
74
2
251
75
2
249
64
7
249
59
7
248
53
11
243
29
17
238
15
19
239
15
19
239
14
23
237
14
23
172
10
18
37
8
12
7
6
5
54
14
13
55
8
8
36
13
6
29
14
7
13
10
7
17
12
9
19
8
5
34
15
6
38
14
10
38
6
5
51
14
7
35
33
7
19
22
7
5
5
4
35
13
10
67
19
12
74
44
9
10
6
4
26
13
8
69
48
9
229
167
3
230
166
1
232
167
3
223
48
24
177
16
36
67
57
68
217
205
219
236
225
232
115
111
111
67
16
23
220
16
36
229
17
39
223
19
34
225
95
14
243
101
3
245
78
1
247
72
3
247
72
3
245
94
2
249
85
2
250
80
2
250
78
2
250
86
2
249
94
1
250
98
2
250
95
2
250
88
2
250
87
2
249
90
2
251
89
2
251
78
2
250
74
2
250
62
4
248
65
4
246
65
3
248
56
7
243
37
14
238
18
19
240
13
24
238
14
24
153
12
20
15
7
9
19
11
9
89
54
11
134
87
10
121
88
12
70
45
8
77
59
10
55
45
11
81
62
12
109
78
10
61
33
14
126
87
14
83
40
9
109
79
9
60
47
11
97
81
9
74
56
8
100
56
13
65
17
12
100
43
6
12
7
6
23
6
5
44
35
12
228
166
3
230
166
2
230
165
2
224
31
29
226
14
37
171
16
33
207
39
64
219
77
95
214
62
83
215
14
35
218
15
33
217
28
36
229
106
26
243
102
4
244
97
2
246
85
2
247
64
1
249
68
1
250
81
2
249
88
2
249
90
1
250
96
2
250
99
2
250
98
2
250
96
2
250
89
1
250
90
2
249
87
1
250
85
2
250
79
2
250
76
2
250
72
4
249
70
4
249
64
3
248
55
6
245
41
13
241
29
19
240
18
22
238
16
23
150
10
17
32
9
9
15
6
4
32
12
9
91
59
9
150
105
10
120
85
9
113
84
10
121
101
10
135
106
9
109
81
9
139
96
12
52
27
13
128
64
11
86
55
9
115
93
12
128
96
9
115
85
9
96
62
10
125
70
12
50
12
8
36
8
7
15
7
5
20
6
6
19
15
11
212
153
7
229
164
1
229
162
1
215
60
23
220
14
34
224
16
35
225
15
37
228
15
38
220
13
30
217
15
31
220
34
24
239
130
7
241
109
3
242
99
3
243
97
2
244
86
2
246
84
2
248
78
2
250
77
2
249
79
3
249
85
2
250
89
2
250
88
3
250
89
3
250
86
3
249
92
4
249
88
3
250
84
4
249
79
4
250
71
5
250
76
4
249
79
4
249
58
7
250
53
8
247
43
14
243
29
20
239
20
24
237
18
23
157
10
18
43
8
7
19
7
4
17
9
8
68
19
14
114
13
12
124
16
12
110
30
8
81
22
7
46
12
8
71
12
11
60
12
10
32
14
10
93
16
16
139
12
11
105
10
11
60
15
9
77
13
11
120
9
13
81
14
13
140
12
14
56
13
9
32
7
8
25
10
6
15
8
7
12
11
11
177
127
8
226
158
1
228
158
2
220
108
12
223
19
45
224
12
31
229
15
37
224
14
33
212
15
29
220
107
13
240
142
5
243
107
3
246
109
2
246
113
2
244
104
2
245
89
2
249
78
3
249
77
3
249
84
6
248
93
4
249
88
5
249
82
4
249
89
5
249
92
5
250
93
5
248
88
6
249
86
5
249
79
5
249
71
5
250
78
4
250
88
3
249
70
5
247
50
10
247
38
15
247
30
21
243
22
26
237
18
26
111
11
17
37
7
7
38
6
4
35
9
9
34
18
14
80
17
15
119
8
9
116
24
13
91
12
13
71
7
8
104
10
12
95
12
14
126
10
13
53
15
11
110
5
7
129
8
11
119
10
12
106
13
12
114
9
13
131
10
14
102
16
14
123
16
10
56
13
10
47
7
9
25
10
6
19
8
8
14
8
8
128
88
10
227
158
2
227
156
2
229
155
2
218
86
29
204
19
26
200
20
31
198
41
18
228
112
8
238
126
5
243
122
4
244
103
3
244
104
2
245
116
2
247
107
3
245
92
2
248
90
2
250
83
3
249
82
3
249
93
3
248
100
5
249
94
5
249
86
5
249
82
4
251
79
4
249
68
6
250
60
6
250
70
6
249
82
4
250
86
4
249
68
5
248
49
11
247
39
18
249
38
17
246
25
21
222
19
24
106
15
19
12
7
7
22
7
5
58
10
12
26
11
11
53
16
11
52
10
9
68
28
12
39
18
9
32
7
4
35
9
6
35
11
8
34
10
5
38
13
6
93
9
9
90
4
4
86
4
4
41
12
5
12
13
6
8
6
5
46
17
10
54
24
9
45
20
6
57
20
8
51
8
9
30
11
7
12
9
8
15
12
10
60
36
9
227
164
3
229
155
1
230
143
3
232
134
2
233
133
4
234
114
3
238
105
3
240
108
3
239
110
3
244
109
4
246
86
4
246
86
2
245
94
3
245
100
2
245
96
3
249
101
3
248
101
2
247
105
3
247
113
3
247
111
5
248
103
6
250
92
5
250
89
5
250
74
6
249
65
6
249
76
5
250
82
3
250
79
3
249
68
5
249
50
11
247
44
15
242
27
16
214
17
14
128
10
14
31
8
9
17
8
8
25
9
8
53
12
14
30
10
8
22
9
8
35
10
8
37
11
7
35
17
8
40
9
4
49
8
4
36
7
5
30
11
5
44
30
9
80
21
9
97
5
8
84
4
5
71
4
4
35
25
6
8
9
5
12
7
5
54
16
11
59
32
7
50
26
6
67
27
5
55
8
7
33
13
9
12
10
9
21
18
10
19
12
11
203
134
5
228
141
1
230
149
2
229
139
2
234
130
2
237
123
2
238
116
2
239
120
2
240
124
3
239
113
2
242
101
3
243
95
2
241
94
2
243
95
3
247
98
2
249
93
2
248
87
2
248
93
4
248
99
4
249
94
5
250
97
5
250
90
4
249
88
3
248
91
3
249
84
3
250
81
5
250
81
3
250
68
9
248
58
10
245
50
11
141
16
15
44
10
12
20
9
8
25
9
8
23
8
7
18
7
6
26
9
9
31
11
10
25
6
3
20
6
4
14
5
3
21
6
3
39
9
4
51
8
4
36
7
3
31
11
7
36
20
9
98
16
13
97
4
6
75
5
4
57
5
3
63
9
6
22
21
9
7
5
4
41
13
10
54
18
10
57
32
6
89
45
3
49
22
5
58
7
9
34
11
9
24
18
10
40
37
9
15
12
9
142
85
9
229
122
1
233
151
2
233
156
1
235
115
2
234
115
2
234
127
2
235
119
2
236
122
2
237
122
2
237
120
1
240
116
2
239
116
2
240
113
1
244
101
2
247
90
2
249
89
3
249
93
4
247
97
3
248
94
4
249
97
3
249
105
3
248
104
3
249
104
2
249
84
2
248
73
5
248
59
8
246
54
12
218
82
10
105
43
17
9
7
7
23
9
8
27
7
4
30
9
9
69
10
12
59
9
9
45
7
3
33
9
5
42
10
5
26
8
5
30
7
3
42
8
5
32
8
5
36
7
4
37
9
6
26
15
9
78
13
10
72
7
5
64
5
4
42
7
5
43
7
4
30
19
9
9
9
6
12
6
5
45
12
10
43
19
8
66
41
5
90
35
4
42
18
6
